<?xml version="1.0" standalone="no"?>
<!DOCTYPE svg PUBLIC "-//W3C//DTD SVG 1.1//EN" "http://www.w3.org/Graphics/SVG/1.1/DTD/svg11.dtd">
<svg xmlns="http://www.w3.org/2000/svg">
<metadata>Copyright (C) 2026 by original authors @ fontello.com</metadata>
<defs>
<font id="topstep-iconfont" horiz-adv-x="1000" >
<font-face font-family="topstep-iconfont" font-weight="400" font-stretch="normal" units-per-em="1000" ascent="850" descent="-150" />
<missing-glyph horiz-adv-x="1000" />
<glyph glyph-name="icon-ai" unicode="&#xe800;" d="M850 277c-34-52-76-103-125-152-70-70-145-126-219-167-103-56-204-83-287-77-62 4-115 25-154 64-50 51-72 125-63 212 2 23 23 40 46 38 23-2 41-23 38-46-5-59 5-110 39-144 32-32 79-43 134-40 62 4 133 28 206 68 67 37 136 88 200 152 57 57 105 119 141 180-36 61-84 122-141 180-15 15-30 29-45 43-18 15-20 42-4 59 15 18 42 20 60 4 16-15 33-30 49-46 70-70 126-145 167-220l0 0c56-102 83-203 77-286-4-62-25-115-64-154-51-50-125-72-212-63-23 2-40 23-38 46 2 23 23 40 46 38 59-6 110 5 144 39 32 32 43 79 40 133-3 43-15 90-35 139z m-772 68c-56 102-83 203-77 286 4 62 25 115 64 154 51 50 125 72 212 63 23-2 41-23 38-46-2-23-23-40-46-38-59 6-110-5-144-39-32-32-43-79-40-133 3-43 15-90 35-139 35 52 77 103 125 152 70 70 145 126 220 167 102 56 203 83 286 77 62-4 115-25 154-64 50-51 72-125 63-212-2-23-23-40-46-38-23 2-40 23-38 46 6 59-5 110-39 144-32 32-79 43-133 40-63-4-134-28-206-68-68-37-137-88-201-152-57-58-105-119-141-180 36-61 84-123 141-180 15-15 30-29 46-43 17-15 19-42 4-59-16-18-43-20-60-4-17 15-34 30-50 46-70 70-126 145-167 219l0 1z m433 159c0 0 25-56 41-72 16-16 72-41 72-41 10-5 17-15 17-26 0-11-7-21-17-26 0 0-56-25-72-41-16-16-41-72-41-72-5-10-15-16-26-16-11-1-21 6-25 16 0 0-26 56-42 72-16 16-72 41-72 41-10 5-16 15-16 26 0 11 6 21 16 26 0 0 56 25 72 41 16 16 41 72 41 72 5 10 15 16 26 16 11 0 21-6 26-16z" horiz-adv-x="1000" />

<glyph glyph-name="icon-article" unicode="&#xe801;" d="M748 601c0 40 0 68-2 90-2 22-5 36-11 47-11 22-28 40-50 51-11 5-25 9-47 10-22 2-50 2-90 2h-299c-40 0-68 0-90-2-22-1-36-5-47-10-22-11-39-29-51-51-5-11-9-25-10-47-2-22-2-50-2-90v-486c0-40 0-68 2-90 1-22 5-36 10-47 12-22 29-39 51-50 11-6 25-9 47-11 22-2 50-2 90-2h299c40 0 68 0 90 2 22 2 36 5 47 11 22 11 39 28 50 50 6 11 9 25 11 47 2 22 2 50 2 90v486z m-443-359c13 0 24-11 24-24 0-14-11-24-24-24h-94c-13 0-24 10-24 24 0 13 11 24 24 24h94z m187 187c13 0 24-11 24-24 0-14-11-24-24-24h-281c-13 0-24 10-24 24 0 13 11 24 24 24h281z m93 187c14 0 25-11 25-24 0-14-11-24-25-24h-374c-13 0-24 10-24 24 0 13 11 24 24 24h374z m212-501c0-39 0-69-2-94-2-25-6-46-16-65-16-31-41-56-72-72-19-10-40-14-65-16-25-2-55-2-94-2h-299c-39 0-70 0-94 2-25 2-46 6-65 16-31 16-56 41-72 72-10 19-14 40-16 65-2 25-2 55-2 94v486c0 39 0 70 2 94 2 25 6 46 16 65 16 31 41 56 72 72 19 10 40 14 65 16 24 2 55 2 94 2h299c39 0 69 0 94-2 25-2 46-6 65-16 31-16 56-41 72-72 10-19 14-40 16-65 2-24 2-55 2-94v-486z" horiz-adv-x="805" />

<glyph glyph-name="icon-blog-post" unicode="&#xe802;" d="M1088-91c17 0 30-13 30-30 0-16-13-29-30-29h-1059c-16 0-29 13-29 29 0 17 13 30 29 30h1059z m-617 582c0 17 0 28-1 36-1 8-2 11-3 13-2 5-7 10-12 13-2 0-5 2-13 2-8 1-19 1-36 1h-282c-17 0-28 0-37-1-8 0-11-2-12-2-6-3-10-8-13-13-1-2-2-5-2-13-1-8-1-19-1-36v-282c0-17 0-28 1-36 0-8 1-11 2-13 3-5 7-10 13-13 1 0 4-1 12-2 9-1 20-1 37-1h282c17 0 28 0 36 1 8 1 11 2 13 2 5 3 10 8 12 13 1 2 2 5 3 13 1 8 1 19 1 36v282z m621-347c16 0 30-13 30-29 0-16-14-30-30-30h-412c-16 0-29 14-29 30 0 16 13 29 29 29h412z m0 235c16 0 30-13 30-29 0-16-14-29-30-29h-412c-16 0-29 13-29 29 0 16 13 29 29 29h412z m-4 236c17 0 30-13 30-30 0-16-13-29-30-29h-411c-17 0-30 13-30 29 0 17 13 30 30 30h411z m0 235c17 0 30-13 30-29 0-17-13-30-30-30h-1059c-16 0-29 13-29 30 0 16 13 29 29 29h1059z m-559-641c0-16 0-30 0-41-1-12-3-23-9-34-9-17-22-31-39-39-11-6-22-8-34-9-11-1-25-1-41-1h-282c-16 0-30 0-41 1-12 1-24 3-35 9-16 8-30 22-38 39-6 11-8 22-9 34-1 11-1 25-1 41v282c0 16 0 30 1 41 1 12 3 23 9 35 8 16 22 30 38 38 11 6 23 8 35 9 11 1 25 1 41 1h282c16 0 30 0 41-1 12-1 23-3 34-9 17-8 30-22 39-38 6-12 8-23 9-35 0-11 0-25 0-41v-282z" horiz-adv-x="1147" />

<glyph glyph-name="icon-book-open" unicode="&#xe803;" d="M1036 657c0 30 0 50-1 66-2 16-4 25-7 31-8 15-19 26-34 34-6 3-15 5-31 7-16 1-36 1-66 1h-20c-59 0-101 0-134-3-33-2-55-8-73-17-33-17-61-44-78-78-9-18-14-40-17-73-2-25-3-54-3-93l0-554c13 17 25 30 39 42 24 19 51 34 81 43 34 10 71 10 134 10h71c30 0 50 0 66 1 16 2 25 4 31 7 15 8 26 19 34 34 3 6 5 15 7 31 1 16 1 36 1 66v445z m-982-445c0-30 0-50 1-66 2-16 4-25 7-31 8-15 20-26 34-34 7-3 15-5 31-7 16-1 36-1 66-1h71c63 0 100 0 135-10 29-9 57-24 80-43 14-12 26-25 39-42v513c0 59 0 101-3 134-2 33-8 55-17 73-17 34-44 61-78 78-18 9-40 15-73 17-33 3-75 3-133 3h-21c-30 0-50 0-66-1-16-2-24-4-31-7-14-8-26-19-34-34-3-6-5-15-7-31-1-16-1-36-1-66v-445z m1036 0c0-29 0-52-1-70-2-19-5-36-13-52-13-24-33-44-57-57-16-8-32-11-51-13-19-1-42-1-71-1h-71c-66 0-94 0-119-8-22-7-44-18-62-33-20-17-35-39-72-95l-5-8c-5-7-14-12-23-12-9 0-17 5-22 12l-6 8c-36 56-52 78-72 95-18 15-39 26-62 33-25 8-52 8-119 8h-71c-29 0-52 0-70 1-19 2-36 5-52 13-24 13-44 33-57 57-8 16-11 33-12 52-2 18-2 41-2 70v445c0 29 0 52 2 71 1 18 4 35 12 51 13 24 33 44 57 57 16 8 33 11 52 13 18 1 41 1 70 1h21c57 0 102 0 138-3 36-3 66-9 92-22 43-22 79-57 101-100 23 43 58 78 101 100 27 13 56 19 92 22 36 3 81 3 139 3h20c29 0 52 0 71-1 19-2 35-5 51-13 24-13 44-33 57-57 8-16 11-33 13-51 1-19 1-42 1-71v-445z" horiz-adv-x="1108" />

<glyph glyph-name="icon-collapse" unicode="&#xe804;" d="M521-115v937c0 16 12 28 28 28 15 0 27-12 27-28v-937c0-16-12-28-27-28-16 0-28 12-28 28z m-383 696c11 11 29 11 40 0l208-208c11-11 11-28 0-39l-208-208c-11-11-29-11-40 0-10 10-10 28 0 39l161 161h-271c-16 0-28 12-28 28 0 15 12 27 28 27h271l-161 161c-10 11-10 29 0 39z m782 0c10 11 28 11 39 0 11-10 11-28 0-39l-161-161h271c16 0 28-12 28-27 0-16-12-28-28-28h-271l161-161c11-11 11-29 0-39-11-11-29-11-39 0l-209 208c-11 11-11 28 0 39l209 208z" horiz-adv-x="1111" />

<glyph glyph-name="icon-clock-reset" unicode="&#xe805;" d="M946 401c7 0 13-2 18-7l104-106c10-9 9-25 0-35-10-10-26-9-36 0l-48 49c-24-253-234-452-491-452-272 0-493 224-493 500 0 276 221 500 493 500 182 0 340-99 425-246 7-12 3-27-9-34-12-7-27-3-34 9-77 132-219 221-382 221-244 0-443-201-443-450 0-249 199-450 443-450 238 0 433 191 443 431l-76-78c-10-9-26-10-36 0-9 10-10 26 0 35l104 106 2 2c5 3 10 5 16 5z m-478 213c0 14 12 25 25 25 14 0 25-11 25-25v-251l145-98c12-8 15-23 7-35-8-11-23-14-35-6l-156 105c-7 5-11 13-11 21v264z" horiz-adv-x="1075" />

<glyph glyph-name="icon-flash" unicode="&#xe806;" d="M556 850c8 0 15-4 20-11 5-7 6-15 3-23l-96-251h309c13 0 26 0 35-1 9 0 21-2 30-10 12-10 19-25 18-41 0-5-2-9-3-11-1-1-2-3-3-4-1-2-3-5-5-7-3-4-8-10-14-16-11-12-26-27-41-43-16-16-32-31-45-44l0 0-518-531c-8-8-21-9-31-4-9 6-14 18-11 29l136 443h-267c-10 0-19 0-27 1-7 0-16 2-25 8-11 7-18 19-21 33-1 10 2 19 4 26 3 7 7 15 12 23l203 399c4 6 7 15 14 21l4 4c5 3 9 6 15 7l3 1c5 2 11 2 16 2h285z m-288-50c-1-1-2-3-4-7l-204-399c-4-9-7-14-9-19 5 0 11 0 22 0h301c8 0 15-4 20-10 4-6 6-15 4-22l-116-377 414 424c1 1 2 3 3 4 10 10 44 44 74 74 15 15 30 30 40 41 2 2 4 4 5 6-6 0-14 0-26 0h-346c-8 0-16 4-20 11-5 7-6 15-3 23l96 251h-243c-4 0-6 0-8 0z" horiz-adv-x="875" />

<glyph glyph-name="icon-coin-stack" unicode="&#xe807;" d="M992 112c-14-9-30-16-47-22-55-20-130-32-211-32-81 0-155 12-210 32-18 6-34 13-48 22v-118c0-3 2-10 13-20 11-9 29-19 53-28 48-17 116-28 192-28 77 0 145 11 193 28 24 9 41 19 52 28 11 10 13 17 13 20v118z m0 194c-14-8-30-16-47-22-55-20-130-32-211-32-81 0-155 12-210 32-18 6-34 14-48 22v-118l1-1c0-4 3-10 12-18 11-10 29-20 53-28 48-18 116-29 192-29 77 0 145 11 193 29 24 8 41 18 52 28 10 8 13 14 13 18l0 1v118z m-422 413c0 4-2 11-13 20-11 10-29 20-53 28-48 18-116 29-192 29-76 0-144-11-192-29-24-8-42-18-53-28-11-9-13-16-13-20 0-3 2-10 13-19 11-10 29-20 53-28 48-18 116-29 192-29 76 0 144 11 192 29 24 8 42 18 53 28 11 9 13 16 13 19z m422-336c0 3-2 10-13 20-11 9-28 19-52 28-48 17-116 28-193 28-76 0-144-11-192-28-24-9-42-19-53-28-11-10-13-17-13-20 0-4 2-11 13-20 11-10 29-19 53-28 48-18 116-29 192-29 77 0 145 11 193 29 24 9 41 18 52 28 11 9 13 16 13 20z m54-389c0-25-14-46-32-61-17-15-42-28-69-38-55-20-130-32-211-32-81 0-155 12-210 32-28 10-52 23-70 38-18 15-32 36-32 61v389c0 25 14 45 32 61 18 15 42 27 70 37 55 20 129 32 210 32 81 0 156-12 211-32 27-10 52-22 69-37 18-16 32-36 32-61v-389z m-422 594c0-15-12-27-27-27-15 0-27 12-27 27v55c-14-9-30-16-47-22-56-20-130-32-211-32-81 0-155 12-211 32-17 6-33 13-47 22v-131c0-3 2-9 11-18 10-9 26-18 47-27 43-17 105-29 175-31 8 0 17 0 25 0 15 0 27-12 27-27 0-15-12-27-27-27-9 0-18 0-27 0-75 2-143 15-193 35-14 5-26 12-38 19v-131l0-1c1-4 3-10 13-19 11-9 29-19 53-28 48-17 116-29 192-29 15 0 27-12 27-27 0-15-12-27-27-27-81 0-155 12-211 32-17 7-33 14-47 22v-130c0-4 2-10 13-20 11-10 29-19 53-28 48-17 116-29 192-29 15 0 27-12 27-27 0-15-12-27-27-27-81 0-155 12-211 32-27 10-51 23-69 38-18 15-32 36-32 61v621c0 26 14 46 32 61 18 16 42 28 69 38 56 20 130 32 211 32 81 0 155-12 211-32 27-10 51-22 69-38 18-15 32-35 32-61v-131z" horiz-adv-x="1054" />

<glyph glyph-name="icon-flash-cash" unicode="&#xe808;" d="M537 850c8 0 16-4 21-11 5-7 6-16 3-24l-92-242h295c14 0 25 0 34-1 8 0 18-2 27-8l4-2 4-4c9-10 14-23 13-37 0-5-2-9-3-11-1-1-2-3-2-4-2-2-4-5-6-7-3-4-8-9-13-15-11-12-25-27-40-42-10-10-21-21-30-30 140-17 248-136 248-280 0-156-126-282-282-282-140 0-256 102-278 236l-200-203c-9-8-22-10-32-4-10 6-15 18-11 30l130 428h-255c-10 0-19 0-26 1-7 1-17 2-25 8-11 8-19 19-21 33-1 10 2 19 4 26 3 7 7 14 11 23l197 388c2 5 6 14 13 20l4 4c4 3 9 6 14 7l4 1c5 2 11 2 15 2h275z m181-487c-127 0-231-103-231-231 0-127 104-231 231-231 127 0 231 104 231 231 0 128-104 231-231 231z m0-39c14 0 26-11 26-25v-13h4c47 0 85-38 85-86 0-14-11-25-25-25-14 0-26 11-26 25 0 19-15 35-34 35h-56c-21 0-38-18-38-39 0-21 17-38 38-38h52c49 0 89-40 89-90 0-50-40-90-89-90v-13c0-14-12-25-26-25-14 0-26 11-26 25v13h-4c-47 0-85 39-85 86 0 14 11 25 25 25 14 0 26-11 26-25 0-19 15-34 34-34h56c21 0 38 17 38 38 0 21-17 38-38 38h-52c-49 0-89 41-89 90 0 50 40 90 89 90v13c0 14 12 25 26 25z m-455 475c-1 0-2 0-2 0-1-1-1-1-1-2-1-1-2-3-3-5l-196-387c-4-8-6-12-8-16 4 0 10 0 19 0h290c8 0 15-4 20-11 5-6 6-15 4-23l-110-362 161 164c11 131 113 237 242 254 13 14 41 42 66 67 15 15 29 29 39 40 1 2 2 3 3 4-6 0-13 0-23 0h-332c-9 0-17 4-21 11-5 7-6 16-3 24l92 242h-232c-2 0-4 0-5 0z" horiz-adv-x="1000" />

<glyph glyph-name="icon-compass" unicode="&#xe809;" d="M544 610c0 51-41 91-91 91-51 0-91-40-91-91 0-33 18-63 45-79 0 0 0 0 0 0 0 0 0 0 0 0 14-8 29-12 46-12 16 0 32 4 45 12 0 0 0 0 1 0 0 0 0 0 0 0 27 16 45 46 45 79z m-43-137c-15-5-31-8-48-8-17 0-33 3-49 8l-210-361c77-42 165-66 259-66 93 0 181 24 258 66l-210 361z m97 137c0-44-19-83-50-110l209-360c37 25 71 55 101 89 10 11 27 12 38 2 12-9 13-27 3-38-34-38-72-72-115-100l118-202c7-13 3-30-10-37-13-8-29-3-37 9l-117 202c-85-47-182-73-285-73-104 0-201 26-286 73l-117-202c-7-12-24-17-36-9-13 7-18 24-10 37l117 202c-42 28-81 62-114 100-10 11-9 29 2 38 11 10 28 9 38-2 30-34 64-64 101-89l210 360c-31 27-51 66-51 110 0 71 51 130 119 143v70c0 15 12 27 27 27 15 0 27-12 27-27v-70c67-13 118-72 118-143z" horiz-adv-x="919" />

<glyph glyph-name="icon-envelope-alt" unicode="&#xe80a;" d="M1162 541c0 17 0 32 0 46l-336-235 333-301c0 2 0 4 0 6 3 28 3 63 3 112v372z m-427-252c-36-26-61-44-88-50-24-6-48-6-71 0-28 6-52 24-89 50l-39 27-365-329c14-21 33-39 56-51 14-7 31-11 58-13 28-2 63-2 112-2h604c49 0 85 0 112 2 27 2 44 6 58 13 23 12 42 30 56 51l-364 329-40-27z m-426 500c-49 0-84 0-112-2-27-2-44-6-58-13-27-14-49-36-63-63-6-13-10-28-12-52l458-321c40-28 54-37 68-41 14-3 28-3 42 0 14 4 28 13 68 41l459 321c-3 24-7 39-13 52-14 27-36 49-63 63-14 7-31 11-58 13-27 2-63 2-112 2h-604z m-248-620c0-49 0-84 2-112 0-2 0-4 0-6l334 301-336 235c0-14 0-29 0-46v-372z m1161 0c0-48 0-86-2-117-3-31-8-57-20-80-20-39-51-70-89-90-24-12-50-17-81-19-30-3-69-3-117-3h-604c-48 0-86 0-117 3-31 2-57 7-80 19-39 20-70 51-90 90-12 23-17 49-19 80-3 31-3 69-3 117v372c0 38 0 69 1 96-2 7-1 14 2 20 0 1 0 1 0 1 2 31 7 57 19 80 20 39 51 70 90 90 23 12 49 17 80 20 31 2 69 2 117 2h604c48 0 87 0 117-2 31-3 57-8 81-20 38-20 69-51 89-90 12-23 17-49 20-80 0 0 0 0 0-1 3-6 3-13 1-20 1-27 1-58 1-96v-372z" horiz-adv-x="1242" />

<glyph glyph-name="icon-envelope" unicode="&#xe80b;" d="M1162 541c0 18 0 33-1 48l-254-170c-16-11-28-18-40-24-11-4-22-8-33-10-13-2-27-2-47-2h-352c-20 0-33 0-47 2-11 2-22 6-33 10-12 6-23 13-40 24l-254 170c0-15 0-30 0-48v-372c0-49 0-84 2-112 2-27 6-44 13-58 14-27 36-49 63-63 14-7 31-11 58-13 28-2 63-2 112-2h604c49 0 85 0 112 2 27 2 44 6 58 13 27 14 49 36 63 63 7 14 11 31 13 58 3 28 3 63 3 112v372z m-853 248c-49 0-84 0-112-2-27-2-44-6-58-13-27-14-49-36-63-63-6-13-10-28-12-51l285-190c18-13 24-17 31-19 6-3 12-5 19-6 7-1 14-2 36-2h352c22 0 30 1 36 2 7 1 13 3 20 6 6 2 12 6 31 19l285 190c-3 23-7 38-13 51-14 27-36 49-63 63-14 7-31 11-58 13-27 2-63 2-112 2h-604z m913-620c0-48 0-86-2-117-3-31-8-57-20-80-20-39-51-70-89-90-24-12-50-17-81-19-30-3-69-3-117-3h-604c-48 0-86 0-117 3-31 2-57 7-80 19-39 20-70 51-90 90-12 23-17 49-19 80-3 31-3 69-3 117v372c0 38 0 69 1 96-2 7-1 14 2 20 0 1 0 1 0 1 2 31 7 57 19 80 20 39 51 70 90 90 23 12 49 17 80 20 31 2 69 2 117 2h604c48 0 87 0 117-2 31-3 57-8 81-20 38-20 69-51 89-90 12-23 17-49 20-80 0 0 0 0 0-1 3-6 3-13 1-20 1-27 1-58 1-96v-372z" horiz-adv-x="1242" />

<glyph glyph-name="icon-date" unicode="&#xe80c;" d="M842 427h-793v-312c0-40 0-68 2-90 1-22 5-36 10-47 12-22 29-39 51-50 11-6 25-9 47-11 22-2 50-2 90-2h393c39 0 67 0 90 2 22 2 35 5 46 11 22 11 40 28 51 50 5 11 9 25 11 47 1 22 2 50 2 90v312z m-250-122c9 10 25 10 34 0 10-9 10-25 0-34l-210-211c-10-9-25-9-35 0l-93 94c-10 9-10 25 0 34 9 10 25 10 34 0l76-76 194 193z m16 334v69h-325v-69c0-14-11-25-25-25-13 0-24 11-24 25v69c-32 0-56 0-75-2-22-2-36-5-47-11-22-11-39-29-51-50-5-11-9-25-10-47-2-22-2-51-2-90v-32h793v32c0 39-1 68-2 90-2 22-6 36-11 47-11 21-29 39-51 50-11 6-24 9-46 11-20 2-43 2-75 2v-69c0-14-11-25-25-25-13 0-24 11-24 25z m282-524c0-39 0-69-2-94-2-25-6-46-16-65-15-31-41-56-72-72-19-10-39-14-64-16-25-2-56-2-94-2h-393c-39 0-70 0-94 2-25 2-46 6-65 16-31 16-56 41-72 72-10 19-14 40-16 65-2 25-2 55-2 94v393c0 39 0 69 2 94 2 25 6 46 16 65 16 31 41 56 72 72 19 9 40 14 65 16 21 1 47 2 79 2v69c0 13 11 24 24 24 14 0 25-11 25-24v-69h325v69c0 13 11 24 24 24 14 0 25-11 25-24v-69c31 0 57-1 79-2 25-2 45-7 64-16 31-16 57-41 72-72 10-19 14-40 16-65 2-25 2-55 2-94v-393z" horiz-adv-x="902" />

<glyph glyph-name="icon-chats" unicode="&#xe80d;" d="M935 255c0 27 0 45-1 60-1 14-3 22-7 28-6 13-17 23-30 30-6 3-14 5-28 6-14 2-33 2-59 2h-262c-27 0-45 0-59-2-14-1-22-3-28-6-13-7-24-17-31-30-3-6-5-14-6-28-1-15-1-33-1-60v-117c0-27 0-45 1-60 1-14 3-22 6-28 7-13 18-23 31-30 6-3 14-5 28-6 14-1 32-1 59-1h84c17 0 28 0 39-2 9-2 19-5 27-9 11-5 20-11 33-21l64-44v51c0 14 11 25 24 25 22 0 38 0 50 0 11 1 18 3 23 5 17 7 31 20 38 37 2 5 3 12 4 24 1 12 1 27 1 49v127z m-140 346c0 40 0 68-2 90-2 22-5 36-11 47-11 22-29 40-50 51-11 5-25 9-47 10-22 2-51 2-90 2h-346c-40 0-68 0-90-2-22-1-36-5-47-10-22-11-39-29-51-51-5-11-9-25-10-47-2-22-2-50-2-90v-217c0-25 0-35 1-43 7-50 47-90 98-97 34-5 67-31 67-72v-73c0-15 0-24 1-31 5 5 11 11 21 22l137 138v27c0 26 0 47 1 64 2 17 5 32 12 46 11 22 29 40 51 51 14 8 30 11 47 12 16 1 37 1 63 1h247v172z m49-172c11 0 20 0 29-1 17-1 32-4 46-12 23-11 41-29 52-51 7-14 10-29 11-46 2-17 2-38 2-64v-127c0-21 0-38-1-52-1-15-3-27-8-39-12-29-35-52-64-64-12-5-25-7-39-8-8-1-18-1-28-1v-73c0-9-5-18-14-22-8-4-17-4-25 2l-102 70c-15 11-20 14-25 17-5 2-10 4-16 5-6 1-12 1-30 1h-84c-26 0-47 0-63 1-17 1-33 4-47 12-22 11-40 29-51 51-7 14-10 29-12 46-1 17-1 38-1 64v21l-102-104c-10-10-18-18-25-24-7-6-16-13-29-14-15-1-30 5-40 16-8 10-10 22-11 31-1 9-1 21-1 35v73c0 10-8 21-25 23-72 11-129 67-139 139-2 13-2 27-2 50v217c0 39 0 70 2 94 2 25 6 46 16 65 16 31 41 56 72 72 19 10 40 14 65 16 24 2 55 2 94 2h346c39 0 69 0 94-2 25-2 46-6 65-16 31-16 56-41 72-72 9-19 14-40 16-65 2-24 2-55 2-94v-172z" horiz-adv-x="1000" />

<glyph glyph-name="icon-book-closed" unicode="&#xe80e;" d="M748 676c0 27 0 45-1 59-1 15-3 23-7 29-6 13-17 23-30 30-6 3-14 5-28 6-14 1-33 1-59 1h-374c-40 0-68 0-90-2-22-1-36-5-47-10-22-11-39-29-51-51-5-11-9-25-10-47-2-22-2-50-2-90v-453c30 29 71 48 116 48h583v480z m-583-529c-60 0-109-45-115-103 0-7 0-13 1-19 1-22 5-36 10-47 12-22 29-39 51-50 11-6 25-9 47-11 22-2 50-2 90-2h374c26 0 45 0 59 1 14 1 22 3 28 7 13 6 24 17 30 30 4 6 6 14 7 28 0 7 1 15 1 25l0 34v107h-583z m632-116c0 0 0-1 0-1 0-21 0-39-2-53-1-17-4-32-11-46-11-23-29-41-52-52-14-7-29-10-46-11-17-2-37-2-63-2h-374c-39 0-70 0-94 2-25 2-46 6-65 16-31 16-56 41-72 72-10 19-14 40-16 65 0 0 0 0 0 0-1 3-2 7-2 10 0 5 0 10 1 15-1 19-1 42-1 69v486c0 39 0 70 2 94 2 25 6 46 16 65 16 31 41 56 72 72 19 10 40 14 65 16 24 2 55 2 94 2h374c26 0 46 0 63-1 17-2 32-5 46-12 23-11 41-29 52-51 7-14 10-29 11-47 2-16 2-37 2-63v-645z" horiz-adv-x="805" />

<glyph glyph-name="icon-cash-bill" unicode="&#xe80f;" d="M1162 99v624c0 6 0 8-1 10 0 1 0 2-1 5 0-1 0 0-1 1 0 1-1 3-2 5-1 1-2 3-3 4-1 1-1 1-1 1-3 3-4 3-4 3 0 0 0 0-2 1-34 15-106 36-245 36-112 0-209-27-304-56-92-29-185-60-277-60-58 0-110 6-153 15-30 6-52 10-67 12-17 2-22 1-22 1-5-2-7-3-9-4-1-1-3-3-6-8 0 0 0-2-1-4 0-3-1-8-1-15-1-13-1-32-1-59v-624c0-6 0-8 0-10 0-1 0-2 1-5 0 1 0 0 1-1 1-1 2-3 3-4 1-2 2-4 3-5 1-1 1-1 0-1 3-3 4-3 4-3 1 0 1-1 3-1 33-15 105-36 245-36 111 0 209 27 303 56 93 29 185 60 278 60 57 0 109-6 152-15 31-5 52-9 68-12 16-2 21-1 21-1 6 2 8 4 9 5 1 1 3 2 6 7 0 1 0 2 1 4 1 4 1 8 2 15 1 13 1 32 1 59z m-930 82v232c0 17 14 30 31 30 16 0 30-13 30-30v-232c0-17-14-30-30-30-17 0-31 13-31 30z m494 174c0 64-51 115-115 115-63 0-115-51-115-115 0-63 52-115 115-115 64 0 115 52 115 115z m203-58v232c0 17 14 31 31 31 16 0 30-14 30-31v-232c0-17-14-30-30-30-17 0-31 13-31 30z m-142 58c0-97-79-175-176-175-97 0-175 78-175 175 0 97 78 176 175 176 97 0 176-79 176-176z m435-256c0-26 0-47-1-63-1-16-3-32-11-45-5-9-11-17-19-24-9-7-18-12-28-15-15-5-33-4-49-2-18 3-42 7-71 13-40 8-88 13-141 13-82 0-164-27-260-57-95-29-200-59-321-59-145 0-227 22-270 41-2 1-6 3-11 6-4 3-8 6-13 10-4 5-9 12-12 16-3 5-7 12-10 18-5 15-5 25-5 36v624c0 26 0 47 1 63 1 16 3 32 11 45 5 9 11 17 20 24 8 7 17 12 27 15 15 5 33 4 50 2 17-3 41-7 70-13 41-7 88-13 142-13 81 0 163 27 259 57 95 29 200 59 322 59 145 0 226-22 269-41 3-1 7-3 11-6 5-3 9-6 13-10 5-5 9-12 13-16 3-5 7-12 9-18 5-15 5-25 5-36v-624z" horiz-adv-x="1242" />

<glyph glyph-name="icon-discord" unicode="&#xe810;" d="M1268 139l-157 616c-4 16-12 30-25 41-12 12-27 19-43 22l-191 31c-21 3-43-1-61-13-18-11-30-29-36-50l-1-4c-1-3-1-6 0-9 0-3 1-6 3-8 2-3 4-5 6-6 3-2 5-3 8-4 44-6 87-16 130-29 10-3 19-11 25-20 5-10 7-21 4-32-1-5-4-10-7-15-4-5-8-8-13-11-5-3-11-5-17-5-5-1-11 0-17 2-156 48-324 48-480 0-11-3-22-3-33 2-10 5-18 13-22 24-2 5-2 11-2 16 0 6 2 11 4 17 3 5 6 9 11 13 4 4 9 6 14 8 43 14 87 24 131 30 3 1 6 2 8 4 3 1 5 3 7 6 1 2 2 5 3 8 0 3 0 6-1 9l-1 4c-5 21-18 39-36 50-18 12-39 16-60 13l-191-31c-17-3-32-10-44-22-12-11-21-25-25-41l-156-616c-5-20-3-40 6-58 8-18 23-32 42-40l354-158c11-4 22-7 34-7 12 0 23 2 34 7 11 4 20 11 29 19 8 9 14 19 18 30l19 50c1 3 1 6 1 9-1 3-2 6-3 9-2 3-4 5-7 7-3 2-6 3-9 3-51 6-102 17-151 33-11 3-20 10-25 20-6 9-7 20-5 31 1 6 4 11 8 16 3 4 7 8 13 11 5 3 10 4 16 5 6 0 11 0 17-2 157-48 325-48 482 0 6 2 12 2 17 2 6-1 12-2 17-5 5-3 9-7 13-11 3-5 6-10 7-16 3-11 1-22-5-31-5-10-14-17-25-20-49-16-100-27-151-33-3 0-6-1-9-3-3-2-5-4-6-7-2-3-3-6-3-9-1-3 0-6 1-9l18-50c4-11 11-21 19-30 8-8 17-15 28-19 11-5 23-7 34-7 12 0 23 3 34 7l355 158c18 8 33 22 42 40 8 18 10 38 6 58z m-823 118c-13 0-25 4-36 11-10 7-18 17-23 28-5 12-6 25-4 37 3 12 9 24 18 33 9 9 20 15 32 17 13 3 25 1 37-4 11-4 21-12 28-23 7-10 11-23 11-35 0-17-7-33-19-45-11-12-28-19-44-19z m381 0c-13 0-25 4-36 11-10 7-18 17-23 28-5 12-6 25-4 37 3 12 9 24 18 33 9 9 20 15 32 17 13 3 25 1 37-4 12-4 21-12 28-23 7-10 11-23 11-35 0-17-7-33-18-45-12-12-29-19-45-19z" horiz-adv-x="1290" />

<glyph glyph-name="icon-columns" unicode="&#xe811;" d="M938 575c0 44 0 76-3 101-2 24-5 40-12 52-12 25-32 45-57 58-13 6-28 10-53 12-25 2-56 2-100 2h-38v-888h38c44 0 75 0 100 3 25 2 40 5 53 12 25 12 45 32 57 57 7 13 10 28 12 53 3 25 3 56 3 101v437z m-575-663h262v888h-262v-888z m-313 226c0-45 0-76 2-101 2-25 6-40 12-53 13-25 33-45 58-57 12-7 28-10 52-12 25-3 57-3 101-3h38v888h-38c-44 0-76 0-101-2-24-2-40-6-52-12-25-13-45-33-58-58-6-12-10-28-12-52-2-25-2-57-2-101v-437z m938 0c0-44 0-78-3-105-2-28-7-51-17-72-18-34-45-61-79-79-21-10-44-15-72-17-27-3-61-3-104-3h-438c-43 0-77 0-105 3-27 2-50 7-71 17-34 18-62 45-79 79-11 21-15 44-18 72-2 27-2 61-2 105v437c0 43 0 77 2 105 3 27 7 50 18 71 17 34 45 62 79 79 21 11 44 16 71 18 28 2 62 2 105 2h438c43 0 77 0 104-2 28-2 51-7 72-18 34-17 61-45 79-79 10-21 15-44 17-71 3-28 3-62 3-105v-437z" horiz-adv-x="1000" />

<glyph glyph-name="icon-intersect" unicode="&#xe812;" d="M940 392c0 27 0 45-1 60-1 14-3 22-6 27-7 13-17 24-30 30-6 3-14 5-28 7-14 1-33 1-60 1h-106v-200c0-26 0-47-1-64-1-17-4-33-12-47-11-23-29-41-52-52-14-8-30-11-47-12-17-1-38-1-64-1h-200v-106c0-27 0-46 2-60 1-14 3-22 6-28 6-13 17-23 30-30 6-3 13-5 28-6 14-1 32-1 59-1h357c27 0 46 0 60 1 14 1 22 3 28 6 13 7 23 17 30 30 3 6 5 14 6 28 1 14 1 33 1 60v357z m-607-200h200c27 0 46 0 60 1 14 1 22 3 28 6 13 7 23 17 30 30 3 6 5 14 6 28 1 14 1 33 1 60v200h-200c-27 0-45 0-59-1-15-2-22-4-28-7-13-6-24-17-30-30-3-5-5-13-6-27-2-15-2-33-2-60v-200z m325 482c0 27 0 45-1 60-1 14-3 22-6 27-7 13-17 24-30 30-6 3-14 5-28 7-14 1-33 1-60 1h-357c-27 0-45 0-60-1-14-2-21-4-27-7-13-6-24-17-30-30-3-5-5-13-6-27-2-15-2-33-2-60v-357c0-27 0-46 2-60 1-14 3-22 6-28 6-13 17-23 30-30 6-3 13-5 27-6 15-1 33-1 60-1h106v200c0 26 0 47 1 64 2 17 5 32 12 47 12 22 30 40 52 52 15 7 30 10 47 12 17 1 38 1 64 1h200v106z m51-106h106c26 0 47 0 64-1 18-2 33-5 47-12 23-12 41-30 52-52 8-15 11-30 12-47 2-17 2-38 2-64v-357c0-26 0-47-2-64-1-18-4-33-12-47-11-23-29-41-52-52-14-8-29-11-47-12-17-2-38-2-64-2h-357c-26 0-47 0-64 2-17 1-32 4-47 12-22 11-40 29-52 52-7 14-10 29-12 47-1 17-1 38-1 64v106h-106c-26 0-47 0-64 1-17 1-32 4-47 12-22 11-40 29-52 52-7 14-10 30-12 47-1 17-1 38-1 64v357c0 26 0 47 1 64 2 17 5 32 12 47 12 22 30 41 52 52 15 7 30 10 47 12 17 1 38 1 64 1h357c26 0 47 0 64-1 17-2 33-5 47-12 23-11 41-30 52-52 8-15 11-30 12-47 1-17 1-38 1-64v-106z" horiz-adv-x="1000" />

<glyph glyph-name="icon-lock" unicode="&#xe813;" d="M833 210c0 45 0 76-2 101-2 25-6 40-12 53-13 24-33 45-57 57-13 7-29 10-53 12-25 2-56 2-101 2h-333c-44 0-76 0-101-2-24-2-40-5-52-12-25-12-45-33-58-57-6-13-10-28-12-53-2-25-2-56-2-101v-72c0-45 0-76 2-101 2-25 6-40 12-53 13-25 33-45 58-57 12-7 28-10 52-12 25-3 57-3 101-3h333c45 0 76 0 101 3 24 2 40 5 53 12 24 12 44 32 57 57 6 13 10 28 12 53 2 25 2 56 2 101v72z m-416-88v104c0 14 11 25 25 25 14 0 25-11 25-25v-104c0-14-11-25-25-25-14 0-25 11-25 25z m260 443c0 130-105 235-235 235-130 0-236-105-236-235v-80c20 0 43 0 69 0h333c26 0 49 0 69 0v80z m50-83c22-3 40-8 57-16 35-18 62-45 80-80 10-20 15-43 17-71 2-27 2-61 2-105v-72c0-44 0-78-2-105-2-28-7-51-17-72-18-34-45-61-80-79-20-10-43-15-71-17-27-3-61-3-105-3h-333c-43 0-77 0-105 3-27 2-50 7-71 17-34 18-62 45-79 79-11 21-15 44-18 72-2 27-2 61-2 105v72c0 44 0 78 2 105 3 28 7 51 18 71 17 35 45 62 79 80 17 8 36 13 57 16v83c0 157 128 285 286 285 157 0 285-128 285-285v-83z" horiz-adv-x="900" />

<glyph glyph-name="icon-meter" unicode="&#xe814;" d="M935 358c0 245-198 443-443 443-245 0-443-198-443-443 0-245 198-443 443-443 245 0 443 198 443 443z m-250 228c10 9 25 9 35 0 9-10 9-25 0-35l-164-163c5-9 7-19 7-30 0-39-32-71-71-71-39 0-71 32-71 71 0 39 32 71 71 71 11 0 21-2 30-6l163 163z m-545-228c0 194 158 352 352 352 13 0 24-11 24-25 0-13-11-24-24-24-167 0-303-136-303-303 0-13-11-24-24-24-14 0-25 11-25 24z m844 0c0-271-220-492-492-492-272 0-492 221-492 492 0 272 220 492 492 492 272 0 492-220 492-492z" horiz-adv-x="1000" />

<glyph glyph-name="icon-calander-30" unicode="&#xe815;" d="M626 850c14 0 25-11 25-24v-69c31 0 57 0 78-2 24-2 45-6 64-16 31-15 56-40 71-71 10-19 14-40 16-65 2-24 2-54 2-93v-390c0-39 0-69-2-94-2-24-6-45-16-64-15-31-40-56-71-72-19-9-40-13-64-15-25-2-55-2-93-2h-389c-39 0-69 0-94 2-24 2-45 6-64 15-31 16-56 41-71 72-10 19-14 40-16 64-2 25-2 55-2 94v390c0 39 0 69 2 93 2 25 6 46 16 65 15 31 40 56 71 71 19 10 40 14 64 16 22 2 47 2 79 2v69c0 13 10 24 24 24 13 0 24-11 24-24v-69h322v69c0 13 11 24 24 24z m-577-730c0-39 0-68 2-90 1-21 5-35 10-46 11-22 29-39 50-50 11-6 25-9 46-11 22-2 50-2 90-2h389c39 0 67 0 89 2 21 2 35 5 46 11 21 11 39 28 50 50 5 11 9 25 11 46 1 22 1 51 1 90v310h-784v-310z m355 217c14 0 25-11 25-25v-17c0-9-5-17-13-22l-96-54c63 0 121-25 121-97 0-55-35-102-121-102-77 0-113 36-121 87-2 13 9 24 22 24h4c13 0 23-11 27-24 8-27 31-43 70-43 46 0 65 28 65 58 0 33-17 57-85 57h-24c-13 0-24 11-24 25v1c0 9 4 16 11 21l103 67h-137c-13 0-22 9-22 22 0 12 9 22 22 22h173z m193 0c99 0 123-66 123-159 0-92-24-158-123-158-98 0-121 66-121 158 0 93 23 159 121 159z m0-44c-59 0-71-45-71-115 0-70 11-114 71-114 61 0 72 44 72 114 0 70-11 115-72 115z m-317 347c0-14-11-24-24-24-14 0-24 10-24 24v68c-32 0-56 0-75-1-21-2-35-6-46-11-21-11-39-29-50-50-5-11-9-25-10-47-2-22-2-50-2-89v-31h784v31c0 39 0 67-1 89-2 22-6 36-11 47-11 21-29 39-50 50-11 5-25 9-46 11-19 1-43 1-74 1v-68c0-14-11-24-25-24-13 0-24 10-24 24v68h-322v-68z" horiz-adv-x="902" />

<glyph glyph-name="icon-medal" unicode="&#xe816;" d="M226 850c14 0 26 0 38-3 10-4 19-9 26-15 9-9 16-20 23-32l150-254 149 254c8 12 14 23 23 32 8 6 16 11 26 15 12 3 24 3 38 3h105c21 0 38 0 52-1 13-1 27-4 39-13 17-12 27-30 30-50 1-15-3-28-9-41-5-12-13-27-24-45l-170-305c103-130 95-319-25-440-130-129-339-129-469 0-120 121-128 310-25 440l-170 305c-10 18-19 33-24 45-6 13-10 26-9 41 3 20 14 38 30 50 12 9 26 12 39 13 14 1 31 1 52 1h105z m434-462c-109 109-286 109-395 0-110-110-110-287 0-396 109-110 286-110 395 0 110 109 110 286 0 396z m-212-59c8 5 18 5 27 1 8-5 13-13 13-23v-209h33c14 0 26-12 26-26 0-14-12-25-26-25h-117c-14 0-26 11-26 25 0 14 12 26 26 26h33v161l-31-20c-12-8-27-5-35 7-8 12-5 28 7 36l70 47z m-327 470c-22 0-36 0-47-1-11-1-13-3-14-3-5-4-8-9-9-15 0-1 0-4 5-14 4-10 11-22 21-41l163-290c51 47 114 75 179 83l-151 256c-8 15-10 18-12 19-2 2-5 4-8 5-2 0-5 1-22 1h-105z m578 0c-17 0-20-1-22-1-3-1-6-3-8-5-2-1-3-4-12-19l-151-256c65-8 128-36 179-83l163 290c10 19 17 31 22 41 4 10 4 13 4 14-1 6-4 11-9 15 0 0-3 2-14 3-11 1-25 1-47 1h-105z" horiz-adv-x="949" />

<glyph glyph-name="icon-key" unicode="&#xe817;" d="M938 513c0 158-129 287-288 287-159 0-287-129-287-287 0-14 0-27 2-39 2-11 3-20 4-27 0-7 1-14 0-21-2-11-4-18-9-27-6-10-16-19-27-30l-266-266c-10-10-12-12-13-15-1-2-3-5-3-7-1-3-1-6-1-20v-90c0-15 0-25 1-32 0-8 1-10 2-12 3-5 7-9 12-12 1 0 4-1 11-2 8-1 17-1 32-1h100v80c0 14 12 25 25 25h80v79c0 14 11 25 25 25h93l75 75c11 11 21 20 31 26 9 5 16 8 26 9 7 1 14 1 21 0 7-1 16-2 27-3 13-2 26-3 39-3 159 0 288 129 288 288z m-209 0c0 20-8 40-23 56-15 15-36 23-56 23-14 0-25 11-25 25 0 14 11 25 25 25 33 0 66-13 91-38 26-25 38-58 38-91 0-14-11-25-25-25-14 0-25 11-25 25z m259 0c0-187-152-338-338-338-15 0-30 1-45 3-12 2-20 3-26 3-6 1-8 1-9 1-2-1-4-1-4-1-1-1-2-1-5-3-2-1-6-4-19-18l-83-82c-4-4-11-7-17-7h-79v-79c0-14-12-25-25-25h-80v-80c0-13-11-25-25-25h-125c-14 0-26 0-36 1-10 1-20 3-30 8-14 7-26 19-34 34-4 9-6 19-7 30-1 9-1 22-1 36v99c0 8 0 15 2 22 2 8 5 16 9 23 6 8 13 15 21 23l266 266c14 14 17 17 18 20 1 2 2 3 2 4 0 1 1 2 1 5 0 0 0 3 0 9-1 6-2 14-3 25-2 15-3 30-3 46 0 186 151 337 337 337 186 0 338-151 338-337z" horiz-adv-x="1000" />

<glyph glyph-name="icon-office" unicode="&#xe818;" d="M995 210c0 29 0 49-1 65-1 15-3 24-7 30-7 14-18 25-32 32-6 4-15 6-30 7-16 1-36 1-65 1h-216v-426h351v291z m-541-27c15 0 28-12 28-27 0-16-13-28-28-28h-195c-15 0-27 12-27 28 0 15 12 27 27 27h195z m0 167c15 0 28-12 28-28 0-15-13-27-28-27h-195c-15 0-27 12-27 27 0 16 12 28 27 28h195z m3 167c15 0 27-13 27-28 0-15-12-28-27-28h-198c-15 0-27 13-27 28 0 15 12 28 27 28h198z m-3 166c15 0 28-12 28-27 0-16-13-28-28-28h-195c-15 0-27 12-27 28 0 15 12 27 27 27h195z m134-38c0 31 1 53 0 74 0 20-2 30-4 35-7 14-19 25-33 32-6 4-15 6-30 7-15 1-35 1-64 1h-184c-29 0-49 0-64-1-16-1-24-3-31-7-13-7-25-18-32-32-3-6-6-18-9-38-2-19-3-42-3-71v-726h454v726z m56-244h216c28 0 51 0 69-1 19-2 36-5 51-13 25-13 44-32 57-57 8-15 11-32 13-51 1-18 1-41 1-69v-291h51c15 0 28-12 28-27 0-16-13-28-28-28h-1074c-16 0-28 12-28 28 0 15 12 27 28 27h51v726c0 29 1 55 3 77 3 22 7 42 15 57 12 25 32 44 56 57 16 8 32 11 51 13 18 1 41 1 69 1h184c28 0 50 0 69-1 18-2 35-5 50-13 25-13 45-32 57-57 9-17 11-39 11-59 0-21 0-48 0-75v-244z" horiz-adv-x="1139" />

<glyph glyph-name="icon-heart" unicode="&#xe819;" d="M1048 482c0 153-116 311-280 311-95 0-157-48-194-91-5-6-13-10-22-10-8 0-16 4-21 10-37 43-99 91-194 91-164 0-280-158-280-311 0-75 29-149 76-218 46-69 109-133 172-186 64-54 128-97 177-128 24-15 44-26 59-34 4-2 8-4 11-6 4 2 8 4 12 6 14 8 35 19 59 34 49 31 113 74 176 128 64 53 127 117 173 186 46 69 76 143 76 218z m57 0c0-90-35-175-86-250-50-75-117-142-183-198-66-56-132-101-183-132-25-16-46-28-62-36-8-4-14-8-19-10-2-1-4-2-6-3-1 0-2-1-4-1 0-1-1-1-2-1-1 0-4-1-8-1-3 0-6 1-7 1-1 0-2 0-3 1-1 0-2 1-3 1-2 1-4 2-6 3-5 2-12 6-19 10-16 8-37 20-62 36-51 31-117 76-183 132-66 56-133 123-184 198-50 75-85 160-85 250 0 175 132 368 337 368 100 0 170-43 215-88 46 45 116 88 216 88 205 0 337-193 337-368z" horiz-adv-x="1114" />

<glyph glyph-name="icon-flash-box" unicode="&#xe81a;" d="M938 575c0 44 0 76-3 101-2 24-5 40-12 52-12 25-32 45-57 58-13 6-28 10-53 12-25 2-56 2-100 2h-438c-44 0-76 0-101-2-24-2-40-6-52-12-25-13-45-33-58-58-6-12-10-28-12-52-2-25-2-57-2-101v-437c0-45 0-76 2-101 2-25 6-40 12-53 13-25 33-45 58-57 12-7 28-10 52-12 25-3 57-3 101-3h438c44 0 75 0 100 3 25 2 40 5 53 12 25 12 45 32 57 57 7 13 10 28 12 53 3 25 3 56 3 101v437z m-464 109c6 8 17 12 28 9 10-4 17-13 17-24v-210h179c13 0 24 0 33 0 8-1 17-3 26-8l3-2 4-4c10-9 16-22 16-35 0-12-5-22-9-30-5-7-12-16-19-27l-238-324c-6-9-18-12-28-9-10 3-17 13-17 24v209h-179c-13 0-24 0-33 1-9 1-20 3-30 10-12 9-19 24-19 39-1 12 5 22 9 29 5 8 11 17 19 27l238 325z m-198-354c-8-11-13-18-16-24-1 0-1-1-1-2 0 0 1 0 2 0 6-1 15-1 29-1h204c14 0 25-11 25-25v-158l192 263c9 11 14 18 17 23 0 1 1 2 1 2-1 1-2 1-3 1-6 0-14 0-28 0h-204c-14 0-25 12-25 25v158l-193-262z m712-192c0-44 0-78-3-105-2-28-7-51-17-72-18-34-45-61-79-79-21-10-44-15-72-17-27-3-61-3-104-3h-438c-43 0-77 0-105 3-27 2-50 7-71 17-34 18-62 45-79 79-11 21-15 44-18 72-2 27-2 61-2 105v437c0 43 0 77 2 105 3 27 7 50 18 71 17 34 45 62 79 79 21 11 44 16 71 18 28 2 62 2 105 2h438c43 0 77 0 104-2 28-2 51-7 72-18 34-17 61-45 79-79 10-21 15-44 17-71 3-28 3-62 3-105v-437z" horiz-adv-x="1000" />

<glyph glyph-name="icon-numero-2" unicode="&#xe81b;" d="M492 850c272 0 492-220 492-492 0-271-220-492-492-492-272 0-492 221-492 492 0 272 220 492 492 492z m0-49c-245 0-443-198-443-443 0-245 198-443 443-443 245 0 443 198 443 443 0 245-198 443-443 443z m3-268c96 0 132-48 128-113-6-119-200-95-200-179v-7h176c13 0 24-11 24-24 0-14-11-25-24-25l-209 1v0c-13 0-24 11-24 24v28c0 132 195 104 199 185 3 38-17 62-68 62-44 0-64-21-69-53-2-12-11-21-23-21h-10c-14 0-26 12-24 27 8 55 43 95 124 95z" horiz-adv-x="1000" />

<glyph glyph-name="icon-cash-shield" unicode="&#xe81c;" d="M767 578c0 41-1 54-5 65-4 11-11 21-19 28-9 8-22 13-60 27l-256 97c-11 4-13 5-15 5-3 0-5 0-7 0-2 0-4-1-15-5l-257-97c-37-14-50-19-59-27-9-7-15-17-19-28-5-11-5-24-5-65v-229c0-108 59-204 133-281 74-76 159-131 205-158 11-7 13-8 16-8 2-1 7-1 9 0 3 0 5 1 16 8 46 27 131 82 205 158 74 77 133 173 133 281v229z m-384-468v46h-29c-44 0-82 25-101 62-7 12-2 27 10 33 12 7 28 2 34-10 11-21 32-35 57-35h102c39 0 71 32 71 71 0 39-32 71-71 71h-96c-66 0-120 54-120 121 0 67 54 121 120 121h23v47c0 13 12 25 25 25 14 0 25-12 25-25v-47h30c44 0 82-25 101-62 6-12 2-27-10-33-13-7-28-2-34 10-11 21-33 35-57 35h-103c-39 0-70-32-70-71 0-39 31-71 70-71h96c67 0 121-54 121-121 0-66-54-121-121-121h-23v-46c0-14-11-25-25-25-13 0-25 11-25 25z m434 239c0-127-69-234-147-315-78-82-168-139-216-167-9-6-18-11-30-14-10-2-22-2-31 0-12 3-21 8-31 14-47 28-137 85-215 167-78 81-147 188-147 315v229c0 37 0 61 8 83 7 18 18 35 33 48 17 15 41 24 75 36l257 97c9 3 17 6 25 7 7 1 14 1 21 0 8-1 16-4 25-7l257-97c34-12 57-21 75-36 15-13 26-30 33-48 8-22 8-46 8-83v-229z" horiz-adv-x="825" />

<glyph glyph-name="icon-happy-chat" unicode="&#xe81d;" d="M923 301v277c0 44 0 75-2 99-2 24-6 40-12 52-12 24-32 44-56 56-12 6-27 10-51 12-25 2-56 2-99 2h-431c-44 0-75 0-99-2-24-2-39-6-52-12-24-12-43-32-56-56-6-12-10-28-12-52-2-24-2-55-2-99v-318c0-49 1-69 5-84 12-44 46-79 90-91 16-4 35-4 85-4 14 0 25-12 25-26v-120c0-14 0-23 1-29 0 0 0-1 0-1 1 0 1 0 1 0 5 4 12 9 23 18l123 98c24 20 39 32 56 40 14 8 29 13 45 16 19 4 38 4 69 4h129c43 0 74 0 99 2 24 2 39 6 51 12 24 12 44 32 56 56 6 12 10 27 12 51 2 25 2 56 2 99z m-276 53c10 11 26 12 37 3 10-10 11-26 2-37l0 0c0 0 0 0 0 0 0 0 0 0 0 0-1 0-1-1-1-1-1-1-2-2-3-3-3-2-6-6-10-10-9-8-23-18-39-29-34-21-84-42-146-42-62 0-111 21-145 42-17 11-30 21-39 29-5 4-8 8-10 10-2 1-3 2-3 3-1 0-1 1-1 1 0 0 0 0 0 0 0 0 0 0 0 0l-1 0c-9 11-8 27 3 37 11 9 27 8 36-3l0 0c0 0 0 0 0 0 1-1 1-1 2-2 2-2 5-4 8-8 7-6 18-15 32-23 28-18 68-35 118-35 50 0 91 17 118 35 14 8 25 17 32 23 4 4 7 6 8 8 1 1 2 1 2 2 0 0 0 0 0 0 0 0 0 0 0 0z m-301 291c29 0 51-23 51-51 0-29-22-52-51-52-28 0-51 23-51 52 0 28 23 51 51 51z m282 0c29 0 52-23 52-51 0-29-23-52-52-52-28 0-51 23-51 52 0 28 23 51 51 51z m346-344c0-42 0-76-2-103-2-27-7-50-17-70-17-34-45-62-79-79-20-10-43-15-70-17-27-2-61-2-103-2h-129c-33 0-46-1-59-3-11-2-22-6-32-12-11-5-21-13-47-34l-122-98c-11-8-20-15-28-20-7-5-17-11-29-11-16 0-31 7-41 19-7 10-9 22-10 30-1 10-1 21-1 34v95c-31 0-53 1-72 6-62 16-110 65-127 127-6 23-6 51-6 97v318c0 43 0 76 2 103 2 28 7 50 18 71 17 34 44 61 78 78 21 11 43 16 71 18 27 2 60 2 103 2h431c42 0 76 0 103-2 27-2 50-7 70-18 34-17 62-44 79-78 10-21 15-43 17-71 2-27 2-60 2-103v-277z" horiz-adv-x="974" />

<glyph glyph-name="icon-reset" unicode="&#xe81e;" d="M494 850c182 0 340-99 426-246 7-12 3-28-9-35-12-7-28-3-35 9-77 132-219 221-382 221-244 0-443-201-443-449 0-248 199-449 443-449 238 0 432 190 443 428l-76-76c-10-10-26-10-36 0-10 10-10 26 0 36l104 105 2 2c4 4 10 6 16 6 7 0 14-3 18-8l105-105c10-10 9-26-1-36-10-10-26-10-36 0l-47 48c-24-253-235-451-492-451-273 0-494 224-494 500 0 276 221 500 494 500z m224-690c14 0 26-11 26-26 0-14-12-25-26-25h-462c-14 0-25 11-25 25 0 15 11 26 25 26h462z m-385 282c15 0 26-11 26-26v-205c0-14-11-25-26-25-14 0-25 11-25 25v205c0 15 11 26 25 26z m103 0c14 0 26-11 26-26v-205c0-14-12-25-26-25-14 0-26 11-26 25v205c0 15 12 26 26 26z m103 0c14 0 25-11 25-26v-205c0-14-11-25-25-25-15 0-26 11-26 25v205c0 15 11 26 26 26z m102 0c14 0 26-11 26-26v-205c0-14-12-25-26-25-14 0-26 11-26 25v205c0 15 12 26 26 26z m-149 203l4-1 2-1c7-2 12-5 14-6l194-122c10-6 14-18 11-29-3-11-13-18-25-18h-410c-11 0-21 7-25 18-3 11 2 23 12 29l194 122c2 1 8 5 16 7l4 1c3 0 6 0 9 0z m-120-126h231l-116 72-115-72z" horiz-adv-x="1077" />

<glyph glyph-name="icon-flash-forward" unicode="&#xe81f;" d="M782 839c7 10 20 14 32 9 12-4 19-16 17-29l-48-357h225c13 0 24 0 33-1 8-1 17-2 26-8l4-2 4-4c9-8 14-19 16-31l1-5 0-5c-1-10-6-19-9-26-5-7-12-17-19-27l-342-478c-7-10-20-14-31-10-12 5-19 17-17 29l47 358h-225c-12 0-24 0-32 1-9 1-21 3-30 10-13 10-20 24-21 40 0 12 5 23 9 30 5 8 11 17 18 27l342 479z m-298-510c-7-11-12-17-15-22 6-1 14-1 27-1h256c8 0 16-3 21-9 5-6 7-14 6-21l-37-281 278 390c8 10 12 17 15 22-5 0-14 0-27 0h-256c-7 0-15 4-20 10-5 6-8 13-6 21l37 281-279-390z m-94-230c15 0 27-12 27-27 0-15-12-27-27-27h-285c-15 0-27 12-27 27 0 15 12 27 27 27h285z m-130 285c15 0 27-12 27-27 0-15-12-27-27-27h-233c-15 0-27 12-27 27 0 15 12 27 27 27h233z m130 285c15 0 27-12 27-27 0-15-12-27-27-27h-259c-15 0-27 12-27 27 0 15 12 27 27 27h259z" horiz-adv-x="1108" />

<glyph glyph-name="icon-question-chat" unicode="&#xe820;" d="M900 585c0 42 0 73-2 97-2 23-5 38-12 50-12 23-31 42-54 54-12 7-27 10-50 12-24 2-55 2-97 2h-420c-42 0-73 0-96-2-24-2-39-5-51-12-23-12-42-31-54-54-6-12-10-27-12-50-2-24-2-55-2-97v-285c0-35 0-60 1-80 2-20 4-33 9-43 12-30 37-55 67-67 10-5 23-7 43-9 20-1 45-1 80-1 23 0 39 0 54-3 19-5 36-14 51-26 12-10 21-22 35-41l73-97c6-8 9-12 12-15 0 0 0-1 0-1 0 0 0 1 0 1 3 3 6 7 12 15l73 97c14 19 23 31 35 41 15 12 32 21 51 26 15 3 31 3 54 3 35 0 61 0 80 1 20 2 33 4 43 9 31 12 55 37 68 67 4 10 6 23 8 43 1 20 1 45 1 80v285z m-417-335c14 0 25-11 25-25 0-14-11-25-25-25h0c-14 0-25 11-25 25 0 14 11 25 25 25h0z m-27 88v62c0 11 7 20 17 24l0 0c0 0 1 0 1 0 1 0 2 1 3 1 3 1 7 3 12 5 9 4 22 11 34 19 27 18 46 39 46 63v0c0 21-8 41-21 57-13 16-32 26-52 30-20 3-41-1-59-11-18-10-32-27-38-46-5-13-19-20-32-16-13 5-20 19-16 32 11 31 32 57 60 73 28 17 61 23 93 17 32-5 61-22 82-47 21-25 33-56 33-89 0-50-38-85-68-105-15-10-31-18-42-23-1 0-2-1-3-1v-45c0-14-11-25-25-25-14 0-25 11-25 25z m494-38c0-35 0-62-1-84-2-22-5-41-12-58-18-43-52-77-95-95-17-7-36-10-58-11-22-2-49-2-84-2-26 0-34 0-42-2-12-3-22-8-31-15-6-6-12-12-27-33l-73-97c-5-7-10-14-14-19-5-5-11-11-20-14-11-5-24-5-36 0-9 3-15 9-19 14-5 5-10 12-15 19l-73 97c-15 21-21 27-27 33-9 7-19 12-31 15-8 2-16 2-42 2-35 0-62 0-84 2-22 1-41 4-58 11-43 18-77 52-95 95-7 17-10 36-11 58-2 22-2 49-2 84v285c0 42 0 74 2 101 2 26 7 48 17 68 17 33 44 60 77 77 20 10 42 15 69 17 26 2 58 2 100 2h420c42 0 74 0 101-2 26-2 48-7 68-17 33-17 60-44 77-77 10-20 15-42 17-68 2-27 2-59 2-101v-285z" horiz-adv-x="950" />

<glyph glyph-name="icon-question" unicode="&#xe821;" d="M935 358c0 245-198 443-443 443-245 0-443-198-443-443 0-245 198-443 443-443 245 0 443 198 443 443z m-443-209c14 0 25-11 25-25 0-13-11-24-25-24h0c-14 0-24 11-24 24 0 14 10 25 24 25h0z m-28 99v63c0 11 7 20 16 24l1 0c0 0 0 0 1 0 0 0 2 1 4 1 3 2 8 4 14 6 13 6 29 14 45 25 33 22 59 51 59 85v0c0 27-10 54-27 74-18 21-42 35-69 40-27 5-55 0-79-14-23-14-41-36-50-62-5-12-19-19-31-15-13 5-20 19-15 32 13 36 38 67 72 87 33 20 73 27 111 20 38-6 73-26 98-56 25-30 39-67 39-106l0-6c-3-57-46-96-81-120-19-12-38-22-52-28-3-1-5-2-7-3v-47c0-13-11-24-25-24-13 0-24 11-24 24z m520 110c0-271-220-492-492-492-272 0-492 221-492 492 0 272 220 492 492 492 272 0 492-220 492-492z" horiz-adv-x="1000" />

<glyph glyph-name="icon-profile" unicode="&#xe822;" d="M940 354c0 246-199 445-444 445-246 0-445-199-445-445 0-119 47-227 124-307 38 59 104 98 180 98h282c75 0 142-39 180-98 76 80 123 188 123 307z m-585-260c-61 0-114-34-142-83 77-63 176-101 283-101 107 0 205 38 282 101-28 49-81 83-141 83h-282z m303 378c0 90-73 162-162 162-90 0-163-72-163-162 0-90 73-163 163-163 89 0 162 73 162 163z m334-118c0-146-64-278-165-369 0 0 0 0-1 0-87-79-203-127-330-127-127 0-243 48-331 127 0 0 0 0-1 1-101 91-164 222-164 368 0 274 222 496 496 496 274 0 496-222 496-496z m-283 118c0-118-95-214-213-214-118 0-214 96-214 214 0 118 96 214 214 214 118 0 213-96 213-214z" horiz-adv-x="1000" />

<glyph glyph-name="icon-target" unicode="&#xe823;" d="M0 354c0 274 222 496 496 496 14 0 25-11 25-26 0-14-11-25-25-25-246 0-445-199-445-445 0-245 199-444 445-444 245 0 444 199 444 444 0 14 12 26 26 26 14 0 26-12 26-26 0-273-222-496-496-496-274 0-496 223-496 496z m235 0c0 144 117 261 261 261 14 0 25-11 25-26 0-14-11-25-25-25-116 0-210-94-210-210 0-115 94-209 210-209 115 0 209 94 209 209 0 14 12 26 26 26 14 0 25-12 25-26 0-144-116-260-260-260-144 0-261 116-261 260z m594 496c8-2 15-7 19-14l43-86 86-44c8-3 13-10 14-19 1-8-1-16-7-22l-141-141c-5-5-11-7-18-7h-131l-180-181c-10-10-26-10-36 0-10 10-10 26 0 36l180 181v130c0 7 3 14 8 19l141 141 2 2c6 4 13 6 20 5z m-120-177v-105h105l109 108-63 31c-5 3-9 7-11 12l-31 62-109-108z" horiz-adv-x="1000" />

<glyph glyph-name="icon-calander-1" unicode="&#xe824;" d="M833 430h-784v-310c0-39 0-68 2-90 1-21 5-35 10-46 11-22 29-39 50-50 11-6 25-9 46-11 22-2 50-2 90-2h389c39 0 67 0 89 2 21 2 35 5 46 11 21 11 39 28 50 50 5 11 9 25 11 46 1 22 1 51 1 90v310z m-405-95c7 5 17 6 25 1 8-4 12-12 12-21v-208h34c13 0 24-11 24-24 0-14-11-25-24-25h-116c-13 0-24 11-24 25 0 13 11 24 24 24h34v162l-32-21c-11-7-26-4-34 7-7 11-4 26 7 34l70 46z m174 305v68h-322v-68c0-14-11-24-24-24-14 0-24 10-24 24v68c-32 0-56 0-75-1-21-2-35-6-46-11-21-11-39-29-50-50-5-11-9-25-10-47-2-22-2-50-2-89v-31h784v31c0 39 0 67-1 89-2 22-6 36-11 47-11 21-29 39-50 50-11 5-25 9-46 11-19 1-43 1-74 1v-68c0-14-11-24-25-24-13 0-24 10-24 24z m280-520c0-39 0-69-2-94-2-24-6-45-16-64-15-31-40-56-71-72-19-9-40-13-64-15-25-2-55-2-93-2h-389c-39 0-69 0-94 2-24 2-45 6-64 15-31 16-56 41-71 72-10 19-14 40-16 64-2 25-2 55-2 94v390c0 39 0 69 2 93 2 25 6 46 16 65 15 31 40 56 71 71 19 10 40 14 64 16 22 2 47 2 79 2v69c0 13 10 24 24 24 13 0 24-11 24-24v-69h322v69c0 13 11 24 24 24 14 0 25-11 25-24v-69c31 0 57 0 78-2 24-2 45-6 64-16 31-15 56-40 71-71 10-19 14-40 16-65 2-24 2-54 2-93v-390z" horiz-adv-x="902" />

<glyph glyph-name="icon-glass-cash" unicode="&#xe825;" d="M447 850c247 0 447-200 447-447 0-115-43-219-113-298l212-212c9-10 9-26 0-36-10-9-26-9-36 0l-212 212c-79-70-183-113-298-113-247 0-447 200-447 447 0 247 200 447 447 447z m0-50c-219 0-397-178-397-397 0-220 178-397 397-397 108 0 206 43 278 113 1 1 2 2 3 3 1 1 2 2 3 3 70 72 113 170 113 278 0 219-177 397-397 397z m3-125c14 0 25-11 25-25v-25h25c69 0 125-56 125-125 0-14-11-25-25-25-14 0-25 11-25 25 0 41-34 75-75 75h-25v-150h25c69 0 125-56 125-125 0-69-56-125-125-125h-25v-25c0-14-11-25-25-25-14 0-25 11-25 25v25h-25c-69 0-125 56-125 125 0 14 11 25 25 25 14 0 25-11 25-25 0-41 34-75 75-75h25v150h-25c-69 0-125 56-125 125 0 69 56 125 125 125h25v25c0 14 11 25 25 25z m25-450h25c41 0 75 34 75 75 0 41-34 75-75 75h-25v-150z m-75 350c-41 0-75-34-75-75 0-41 34-75 75-75h25v150h-25z" horiz-adv-x="1000" />

<glyph glyph-name="icon-reversal" unicode="&#xe826;" d="M568 253c12 7 27 3 35-9l46-75c28-42 39-59 53-70 14-11 29-20 46-25 17-5 37-5 88-5h66l-113 113c-10 10-10 26 0 36 9 9 25 9 35 0l156-157c5-4 8-11 8-17 0-7-3-13-8-18l-156-156c-10-10-26-10-35 0-10 10-10 25 0 35l113 114h-66c-47 0-76 0-103 8-23 7-44 18-62 33-22 18-38 42-64 81 0 1 0 1 0 1l-47 76c-7 12-4 27 8 35z m221 590c9 9 25 9 35 0l156-157c5-4 8-11 8-17 0-7-3-13-8-18l-156-156c-10-10-26-10-35 0-10 10-10 25 0 35l113 114h-66c-51 0-71 0-88-6-17-5-32-13-46-24-14-12-25-28-53-70l-269-403c-26-39-42-63-63-81-18-15-40-26-62-33-27-8-56-8-103-8h-127c-14 0-25 11-25 25 0 14 11 25 25 25h127c50 0 70 0 88 5 16 5 32 14 45 25 15 11 26 28 54 70l268 402c26 40 42 64 64 82 18 15 39 26 62 33 27 8 56 8 103 8h66l-113 113c-10 10-10 26 0 36z m-637-149c47 0 76 0 103-8 22-7 44-18 62-33 16-14 29-31 45-55l18-27 1 0 47-77c7-11 3-27-9-34-11-7-27-4-34 8l-46 76c-28 42-39 58-54 70-13 11-29 19-45 24-18 6-38 6-88 6h-127c-14 0-25 11-25 25 0 14 11 25 25 25h127z" horiz-adv-x="1000" />

<glyph glyph-name="icon-expand" unicode="&#xe827;" d="M270 161c11 11 30 11 41 0 11-11 11-30 0-41l-213-213h193c15 0 28-13 28-28 0-16-13-29-28-29h-262c-8 0-15 3-21 8-5 6-8 13-8 21v262c0 15 13 28 29 28 15 0 28-13 28-28v-194l213 214z m419 0c12 11 30 11 41 0l213-214v194c0 15 13 28 28 28 16 0 29-13 29-28v-262c0-16-13-29-29-29h-261c-16 0-29 13-29 29 0 15 13 28 29 28h193l-214 213c-11 11-11 30 0 41z m-689 399v261c0 16 13 29 29 29h262c15 0 28-13 28-29 0-15-13-28-28-28h-193l213-213c11-11 11-29 0-41-11-11-30-11-41 0l-213 214v-193c0-16-13-29-28-29-16 0-29 13-29 29z m1000 0c0-16-13-29-29-29-15 0-28 13-28 29v193l-213-214c-11-11-29-11-41 0-11 12-11 30 0 41l214 213h-193c-16 0-29 13-29 28 0 16 13 29 29 29h261c16 0 29-13 29-29v-261z" horiz-adv-x="1000" />

<glyph glyph-name="icon-meter-alt" unicode="&#xe828;" d="M950 350c0 249-201 450-450 450-248 0-450-201-450-450 0-248 202-450 450-450 249 0 450 202 450 450z m-807 0c0 197 160 358 357 358 22 0 43-2 63-6 14-2 23-15 20-29-2-14-15-23-29-20-17 3-35 5-54 5-170 0-307-138-307-308 0-65 20-126 55-176 8-11 5-27-7-34-11-8-26-6-34 6-41 58-64 128-64 204z m665 0c0 23-3 45-8 66-2 13 6 27 20 30 13 3 26-6 29-19 6-25 9-51 9-77 0-76-24-146-65-204-7-12-23-14-34-6-12 7-14 23-7 34 35 50 56 111 56 176z m-112 231c10 10 26 10 35 0 10-9 10-25 0-35l-165-166c4-9 7-19 7-30 0-40-33-72-73-72-40 0-72 32-72 72 0 40 32 73 72 73 11 0 21-3 30-7l166 165z m304-231c0-276-224-500-500-500-276 0-500 224-500 500 0 276 224 500 500 500 276 0 500-224 500-500z" horiz-adv-x="1000" />

<glyph glyph-name="icon-numero-3" unicode="&#xe829;" d="M492 850c272 0 492-220 492-492 0-271-220-492-492-492-272 0-492 221-492 492 0 272 220 492 492 492z m0-49c-245 0-443-198-443-443 0-245 198-443 443-443 245 0 443 198 443 443 0 245-198 443-443 443z m98-268c14 0 26-12 26-27v-19c0-10-5-19-13-23l-105-59c69 0 132-28 132-106 0-60-38-111-132-111v0c-84 0-123 39-132 95-2 14 10 26 25 26h3c15 0 26-12 31-26 8-29 33-47 76-47 50 0 70 30 70 63 0 36-18 63-92 63h-26c-15 0-27 12-27 26v2c0 9 5 17 12 22l112 73h-149c-13 0-24 11-24 24 0 13 11 24 24 24h189z" horiz-adv-x="1000" />

<glyph glyph-name="icon-numero-4" unicode="&#xe82a;" d="M492 850c272 0 492-220 492-492 0-271-220-492-492-492-272 0-492 221-492 492 0 272 220 492 492 492z m0-49c-245 0-443-198-443-443 0-245 198-443 443-443 245 0 443 198 443 443 0 245-198 443-443 443z m53-268c20 0 37-16 37-37v-187h37c13 0 23-11 23-23 0-14-11-25-24-25h-36v-42c0-17-13-30-29-30h-1c-16 0-29 14-29 30v43h-145c-20 0-36 16-36 36v7c0 7 2 13 6 19l146 196c6 8 15 13 25 13h26z m-147-224h125v165l-125-165z" horiz-adv-x="1000" />

<glyph glyph-name="icon-numero-1" unicode="&#xe82b;" d="M492 850c272 0 492-220 492-492 0-271-220-492-492-492-272 0-492 221-492 492 0 272 220 492 492 492z m0-49c-245 0-443-198-443-443 0-245 198-443 443-443 245 0 443 198 443 443 0 245-198 443-443 443z m12-248c7 5 17 6 25 1 8-4 13-12 13-21v-286h78c14 0 24-11 24-25 0-13-10-24-24-24h-205c-14 0-25 11-25 24 0 14 11 25 25 25h78v241l-59-40c-12-7-27-4-34 7-8 11-5 27 7 34l97 64z" horiz-adv-x="1000" />

<glyph glyph-name="icon-recycle" unicode="&#xe82c;" d="M916 655c6 4 14 5 21 3l151-41c15-4 23-18 19-33-4-14-18-23-33-19l-81 22c127-237 44-534-190-670-143-83-311-86-451-24-14 6-20 22-14 36 6 13 22 20 36 14 125-56 274-53 402 21 211 122 285 392 165 605l-26-96c-4-14-18-23-33-19-14 4-23 18-19 33l41 152 0 2c3 6 7 11 12 14z m-611 128c143 83 311 86 452 24 13-6 19-22 13-36-6-13-22-20-35-14-126 56-275 53-403-21-211-122-284-392-165-605l26 96c4 15 19 23 33 19 15-4 23-18 19-33l-40-152c-2-7-7-13-13-16-6-4-14-5-20-3l-152 41c-14 4-23 19-19 33 4 14 19 23 33 19l81-22c-127 237-44 534 190 670z m479-609c15 0 27-12 27-27 0-15-12-27-27-27h-433c-15 0-27 12-27 27 0 15 12 27 27 27h433z m-361 268c15 0 28-12 28-27v-195c0-15-13-27-28-27-14 0-27 12-27 27v195c0 15 13 27 27 27z m97 0c15 0 27-12 27-27v-195c0-15-12-27-27-27-15 0-27 12-27 27v195c0 15 12 27 27 27z m96 0c15 0 27-12 27-27v-195c0-15-12-27-27-27-15 0-27 12-27 27v195c0 15 12 27 27 27z m96 0c15 0 27-12 27-27v-195c0-15-12-27-27-27-15 0-27 12-27 27v195c0 15 12 27 27 27z m-140 192l4-1 3-1c6-2 12-5 13-7l182-115c10-6 15-18 12-30-4-12-14-20-26-20h-385c-12 0-22 8-26 20-3 12 2 24 12 30l182 115c2 2 8 6 16 8l4 1c3 0 6 0 9 0z m-103-119h197l-98 62-99-62z" horiz-adv-x="1108" />

<glyph glyph-name="icon-phone" unicode="&#xe82d;" d="M146 836c36 19 78 19 114 0 18-9 35-26 60-52l10-9c17-17 28-28 36-40 27-41 27-95 0-137-8-12-19-23-36-39-6-7-7-8-8-9-4-6-6-15-4-21 1-2 1-3 4-10 34-70 80-136 138-194 59-58 125-104 195-138 6-3 8-4 9-4 7-2 16-1 21 3 2 1 3 2 9 9 17 16 28 28 39 35 42 27 96 27 138 0 12-7 23-19 39-35l10-10c25-25 42-42 52-61 18-36 18-78 0-114-10-19-27-36-52-61l-8-8c-26-26-42-42-63-54-24-13-60-23-87-23-25 0-43 6-71 14-156 44-304 128-427 251-123 123-206 271-251 427-8 28-13 45-13 70 0 28 9 63 23 87 12 22 28 38 54 64l8 7c25 26 42 43 61 52z m90-45c-21 10-46 10-67 0-10-5-20-15-48-43l-8-8c-27-27-38-38-46-52-9-16-16-43-16-62 0-16 3-27 11-56 43-148 122-288 239-405 116-117 256-196 404-238 29-8 40-11 57-11 18 0 45 7 61 16 15 8 25 18 53 46l8 7c28 29 37 39 42 48 11 22 11 47 0 68-5 10-14 20-42 48l-10 9c-19 19-25 25-31 29-25 16-57 16-82 0-6-4-12-10-31-29-5-5-9-9-15-13-18-13-44-18-65-11-7 1-12 4-17 7-76 36-146 85-209 148-62 62-112 133-148 208-3 6-5 11-7 17-6 22-2 47 11 66 4 5 9 10 14 15 18 18 25 25 29 31 16 25 16 57 0 81-4 6-11 13-29 31l-10 10c-28 28-38 38-48 43z" horiz-adv-x="1000" />

<glyph glyph-name="icon-trnd-line" unicode="&#xe82e;" d="M1833 195c0-25-20-46-45-46-25 0-46 21-46 46v500l-607-608c-17-17-32-31-44-42-14-11-28-22-46-27-27-9-56-9-82 0-18 5-33 16-46 27-13 11-27 25-44 42l-238 238c-18 18-30 30-39 38-9 7-13 9-15 10-8 2-17 2-26 0-2-1-6-3-15-10-9-8-20-20-38-38l-424-424c-18-18-47-18-65 0-17 18-17 47 0 64l424 425c17 16 32 31 45 42 13 11 27 21 45 27 27 9 56 9 82 0 18-6 33-16 46-27 13-11 27-26 44-42l238-239c18-18 30-29 39-37 9-7 13-9 15-10 8-3 17-3 26 0 2 1 6 3 15 10 9 8 20 19 38 37l608 608h-500c-25 0-45 20-45 46 0 25 20 45 45 45h610c25 0 45-20 45-45v-610z" horiz-adv-x="1864" />

<glyph glyph-name="icon-youtube" unicode="&#xe82f;" d="M695 850l0-34v34h5c3 0 8 0 14 0 11 0 28 0 48 0 41-1 96-2 154-3 58-2 120-4 174-8 53-3 101-8 130-15 1 0 1 0 2 0 34-10 65-29 89-54 22-22 38-49 48-79l3-12 1-3c19-107 28-217 28-326 0-108-9-215-28-322-1 0-1-1-1-2-8-34-26-66-51-91-24-26-55-44-89-54-1 0-1 0-1 0-29-8-78-13-131-17-54-4-116-7-174-8-58-2-113-3-154-3-20-1-37-1-48-1-6 0-11 0-14 0h-5c0 0 0 1 0 35l0-35h-4c-3 0-8 0-14 0-11 0-28 0-48 1-41 0-96 1-154 3-59 1-120 4-174 8-53 4-102 9-131 17l0 0c-34 9-64 27-89 51-25 25-42 55-52 88 0 1-1 2-1 4-19 107-29 217-28 326-1 109 9 217 28 324 0 1 1 1 1 2 8 35 26 66 51 92 24 25 55 43 89 53l1 0c29 8 78 13 131 17 54 4 115 7 174 9 58 1 113 2 154 3 20 0 37 0 48 0 6 0 11 0 14 0h4z m-4-69c-3 0-8 0-13 0-12 0-28 0-48 0-41-1-95-2-153-3-58-2-119-5-171-8-54-4-96-9-118-15-22-7-43-19-59-36-16-16-27-36-33-59-19-102-27-206-27-310v0c-1-105 8-209 27-312 6-21 18-41 34-57 16-16 36-27 58-33 22-6 64-11 118-15 52-4 113-7 171-8 58-2 112-3 153-3 20-1 36-1 48-1 5 0 10 0 13 0h9c3 0 8 0 13 0 12 0 28 0 48 1 41 0 95 1 153 3 58 1 119 4 171 8 54 4 96 9 118 15 22 6 43 18 59 35 16 16 27 37 33 59 18 102 27 205 27 308v0c1 105-8 210-27 313-6 22-17 42-33 59-16 17-37 29-59 35-22 5-65 10-117 14-53 3-114 5-172 7-58 2-112 2-153 3-20 0-36 0-48 0-5 0-10 0-13 0h-9z m-116-157c15 1 28-4 38-9 10-5 21-13 34-21l260-168c11-7 22-13 29-19 8-6 18-15 23-28 7-17 7-36 0-52-5-13-15-22-23-28-7-6-18-13-29-20l-260-167c-13-8-24-16-34-21-10-5-23-10-38-9-20 1-38 11-49 27-9 12-12 26-13 37-1 11-1 24-1 39v335c0 16 0 29 1 40 1 11 4 25 13 37l4 6c12 12 28 20 45 21z m6-439c0-15 0-25 1-32 6 3 14 8 28 17l260 167c12 8 19 12 23 16-4 3-11 8-23 15l-260 168c-14 8-22 14-28 17-1-7-1-17-1-33v-335z" horiz-adv-x="1414" />

<glyph glyph-name="icon-speedometer" unicode="&#xe830;" d="M500 850c276 0 500-224 500-500 0-136-54-260-143-350-1-1-2-3-3-4-1-1-3-2-4-3-90-89-214-143-350-143-136 0-260 54-350 143-1 1-3 2-4 3-1 1-2 3-3 4-88 90-143 214-143 350 0 276 224 500 500 500z m-112-762c-47 0-67-1-85-5-17-4-33-11-48-20-15-9-27-21-55-48 80-72 185-115 300-115 115 0 220 43 300 115-27 27-40 39-55 48-15 9-31 16-48 20-18 4-38 5-85 5h-224z m182 262c0 39-31 70-70 70-39 0-70-31-70-70 0-39 31-70 70-70 39 0 70 31 70 70z m-95 356v93c-106-5-203-48-277-115l66-66c10-10 10-26 0-36-10-9-26-9-35 0l-66 66c-65-73-107-168-112-273h93c14 0 25-11 25-25 0-14-11-25-25-25h-93c6-105 48-201 114-275 26 27 44 44 64 56 19 12 40 20 62 26 25 6 52 6 97 6h224c45 0 72 0 97-6 22-6 43-14 62-26 20-12 38-29 64-56 66 74 109 170 114 275h-93c-14 0-25 11-25 25 0 14 11 25 25 25h93c-5 105-47 200-112 273l-236-233c12-19 19-41 19-65 0-66-54-120-120-120-66 0-120 54-120 120 0 66 54 120 120 120 24 0 47-7 65-19l237 233c-74 67-171 110-277 115v-93c0-14-11-25-25-25-14 0-25 11-25 25z" horiz-adv-x="1000" />

<glyph glyph-name="icon-stopwatch" unicode="&#xe831;" d="M800 279c0 209-168 379-375 379-207 0-375-170-375-379 0-210 168-379 375-379 207 0 375 169 375 379z m-400 190c0 14 11 25 25 25 14 0 25-11 25-25v-176l106-64c11-7 15-23 8-34-7-12-22-16-34-9l-118 71c-7 5-12 13-12 22v190z m-314 274c10 10 25 10 35 0 10-9 10-25 0-35l-70-71c-10-10-26-10-35 0-10 9-10 25-1 35l71 71z m643 0c9 10 23 10 33 2l2-2 71-71c9-10 9-26 0-35-10-10-26-10-36 0l-70 71c-10 10-10 26 0 35z m121-464c0-237-190-429-425-429-235 0-425 192-425 429 0 228 177 415 400 428v93h-69c-14 0-25 11-25 25 0 14 11 25 25 25h188c14 0 25-11 25-25 0-14-11-25-25-25h-69v-93c223-13 400-200 400-428z" horiz-adv-x="850" />

<glyph glyph-name="icon-x" unicode="&#xe832;" d="M859 850h167l-365-418 430-568h-337l-263 345-302-345h-167l390 447-412 539h345l239-315 275 315z m-59-886h93l-598 791h-100l605-791z" horiz-adv-x="1091" />

<glyph glyph-name="icon-trend-box" unicode="&#xe833;" d="M779 304c0-14-11-25-25-25-14 0-25 11-25 25v148l-240-240c-5-5-10-10-14-13-4-4-10-8-18-11-10-3-21-3-31 0-7 3-13 7-18 11-4 3-9 8-13 13l-98 97c-5 6-8 9-11 11 0 0 0 0-1 0 0 0 0 0 0 0-3-2-6-5-11-11l-224-223c0-19 1-35 2-49 2-25 6-40 12-53 13-25 33-45 58-57 12-7 28-10 52-12 25-3 57-3 101-3h438c44 0 75 0 100 3 25 2 40 5 53 12 25 12 45 32 57 57 7 13 10 28 12 53 3 25 3 56 3 101v437c0 44 0 76-3 101-2 24-5 40-12 52-12 25-32 45-57 58-13 6-28 10-53 12-25 2-56 2-100 2h-438c-44 0-76 0-101-2-24-2-40-6-52-12-25-13-45-33-58-58-6-12-10-28-12-52-2-25-2-57-2-101v-419l188 189c5 4 10 9 14 13 5 4 10 8 18 10 10 3 21 3 31 0 8-2 13-6 18-10 4-4 9-9 14-13l97-98c5-5 8-8 11-10 0-1 0-1 1-1 0 0 0 0 1 1 2 2 5 5 10 10l241 241h-148c-14 0-25 11-25 25 0 13 11 25 25 25h208c14 0 25-12 25-25v-209z m209-166c0-44 0-78-3-105-2-28-7-51-17-72-18-34-45-61-79-79-21-10-44-15-72-17-27-3-61-3-104-3h-438c-43 0-77 0-105 3-27 2-50 7-71 17-34 18-62 45-79 79-11 21-15 44-18 72-1 17-2 37-2 60 0 2 0 3 0 5 0 12 0 25 0 40v437c0 43 0 77 2 105 3 27 7 50 18 71 17 34 45 62 79 79 21 11 44 16 71 18 28 2 62 2 105 2h438c43 0 77 0 104-2 28-2 51-7 72-18 34-17 61-45 79-79 10-21 15-44 17-71 3-28 3-62 3-105v-437z" horiz-adv-x="1000" />

<glyph glyph-name="icon-ai_sm" unicode="&#xe834;" d="M866 266c-36-52-78-105-128-154-71-71-148-129-223-170-105-57-208-85-292-79-63 4-117 26-156 66-52 51-74 127-65 215 2 24 23 42 47 39 24-2 41-23 39-47-6-60 5-111 40-146 32-33 80-44 135-41 64 4 136 28 210 69 69 38 139 90 204 155 58 58 107 121 143 183-36 62-85 125-143 183-15 16-31 30-46 44-18 16-20 43-4 61 16 18 43 19 61 4 17-15 34-31 50-48 71-71 128-147 170-223l0 0c57-105 85-207 79-292-4-63-26-117-66-156-51-52-127-73-215-65-24 2-41 23-39 47 2 24 23 41 47 39 60-6 112 5 146 40 33 32 44 80 41 135-3 44-15 92-35 141l0 0z m-786 69c-58 105-85 208-79 292 4 63 26 117 66 157 51 51 126 73 215 64 24-2 41-23 39-47-2-24-23-41-47-39-60 6-112-5-146-39-33-33-44-81-41-136 3-44 15-91 35-141 36 53 78 105 128 154 71 72 148 129 223 170 105 58 208 85 292 79 63-4 117-26 156-65 52-52 73-127 65-216-2-24-23-41-47-39-24 2-41 23-39 47 6 60-5 112-40 146-32 33-80 45-135 41-64-4-136-28-210-68-69-38-139-91-204-156-59-58-107-121-144-183 37-62 85-124 144-183 15-15 30-30 46-43 18-16 20-43 4-61-16-18-43-20-61-4-17 15-34 31-50 47-71 71-129 148-170 223l0 0z m440 163c0 0 26-58 42-74 16-16 74-42 74-42 10-4 16-15 16-26 0-11-6-21-16-26 0 0-58-26-74-42-16-16-42-73-42-73-5-11-15-17-26-17-11 0-21 6-26 17 0 0-26 57-42 73-16 16-74 42-74 42-10 5-16 15-16 26 0 11 6 22 16 26 0 0 58 26 74 42 16 16 42 74 42 74 4 10 15 16 26 17 11 0 21-7 26-17z" horiz-adv-x="1000" />

<glyph glyph-name="icon-article_sm" unicode="&#xe835;" d="M727 586c0 39 0 66-1 86-2 20-5 30-9 38-8 17-22 31-39 39-7 4-18 7-38 8-20 2-46 2-85 2h-291c-39 0-66 0-86-2-20-1-30-4-37-8-18-8-31-22-40-39-4-8-7-18-8-38-2-20-2-47-2-86v-472c0-39 0-66 2-86 1-20 4-30 8-38 9-17 22-31 40-39 7-4 17-7 37-8 20-2 47-2 86-2h291c39 0 65 0 85 2 20 1 31 4 38 8 17 8 31 22 39 39 4 8 7 18 9 38 1 20 1 47 1 86v472z m-409-327c25 0 46-20 46-45 0-25-21-46-46-46h-91c-25 0-45 21-45 46 0 25 20 45 45 45h91z m182 182c25 0 46-20 46-45 0-26-21-46-46-46h-273c-25 0-45 20-45 46 0 25 20 45 45 45h273z m91 182c25 0 45-21 45-46 0-25-20-45-45-45h-364c-25 0-45 20-45 45 0 25 20 46 45 46h364z m227-509c0-38 0-69-2-94-2-25-6-49-18-71-17-34-45-62-79-79-22-11-46-16-71-18-25-2-56-2-93-2h-291c-38 0-69 0-94 2-25 2-49 7-71 18-34 17-62 45-79 79-11 22-16 46-18 71-2 25-2 56-2 94v472c0 38 0 69 2 94 2 25 7 49 18 71 17 34 45 62 79 79 22 11 46 16 71 18 25 2 56 2 94 2h291c37 0 68 0 93-2 25-2 49-7 71-18 34-17 62-45 79-79 12-22 16-46 18-71 2-25 2-56 2-94v-472z" horiz-adv-x="818" />

<glyph glyph-name="icon-bank_sm" unicode="&#xe836;" d="M905-51c26 0 47-21 47-47 0-26-21-48-47-48h-857c-27 0-48 22-48 48 0 26 21 47 48 47h857z m-762 96v381c0 26 21 47 48 47 26 0 47-21 47-47v-381c0-26-21-48-47-48-27 0-48 22-48 48z m190 0v381c0 26 22 47 48 47 26 0 48-21 48-47v-381c0-26-22-48-48-48-26 0-48 22-48 48z m191 0v381c0 26 21 47 47 47 27 0 48-21 48-47v-381c0-26-21-48-48-48-26 0-47 22-47 48z m190 0v381c0 26 22 47 48 47 26 0 48-21 48-47v-381c0-26-22-48-48-48-26 0-48 22-48 48z m-230 805l8-2 5-1c12-4 21-10 25-13l360-225c18-11 27-33 21-54-6-20-25-34-46-34h-762c-21 0-40 14-45 34-6 21 2 43 20 54l361 225c4 3 16 11 29 14l8 2c6 0 11 0 16 0z m-223-234h430l-215 135-215-135z" horiz-adv-x="952" />

<glyph glyph-name="icon-bank-alt_sm" unicode="&#xe837;" d="M900 21c0 15 0 23 0 29-1 0-1 0-1 1 0 0 0 0 0 0-6 0-14 0-29 0h-740c-15 0-23 0-29 0 0 0 0 0 0 0 0-1 0-1 0-1-1-6-1-14-1-29v-40c0-15 0-23 1-29 0 0 0 0 0 0 0 0 0 0 0 0 6-1 14-1 29-1h740c15 0 23 0 29 1 0 0 0 0 0 0 0 0 0 0 1 0 0 6 0 14 0 29v40z m-225 130h125v300h-125v-300z m-250 0h150v300h-150v-300z m-225 0h125v300h-125v-300z m700 509c0 1 0 1 0 1-1 0-1 0-1 0-4 1-11 3-22 5l-370 83c-4 0-6 1-7 1-1 0-1 0 0 0 1 0 1 0 0 0-1 0-3-1-6-1l-370-83c-12-2-19-4-23-5 0 0 0 0-1 0 0 0 0 0 0-1 0-4 0-11 0-23v-56c0-15 0-23 1-29 0 0 0 0 0 0 0 0 0 0 0 0 6-1 14-1 29-1h740c15 0 23 0 29 1 0 0 0 0 0 0 0 0 0 0 1 0 0 6 0 14 0 29v56c0 12 0 19 0 23z m100-79c0-13 0-26-1-37-1-11-3-25-10-38-9-19-25-34-44-44-13-7-27-9-38-10-2 0-5 0-7 0v-301c2 0 5 0 7-1 11 0 25-3 38-10 17-8 31-21 40-36l4-7 5-10c3-11 5-20 5-29 1-11 1-24 1-37v-40c0-13 0-26-1-37-1-11-3-25-10-38-9-19-25-34-44-44-13-7-27-9-38-10-11-1-24-1-37-1h-740c-13 0-26 0-37 1-11 1-25 3-38 10-19 10-34 25-44 44-7 13-9 27-10 38-1 11-1 24-1 37v40c0 13 0 26 1 37 1 12 3 25 10 39 10 18 25 34 44 43 13 7 27 10 38 10 2 1 5 1 7 1v301c-2 0-5 0-7 0-11 1-25 3-38 10-19 10-34 25-44 44-7 13-9 27-10 38-1 11-1 24-1 37v56c0 11 0 22 1 31 0 9 2 21 7 33 7 16 19 31 34 41 10 8 21 12 30 15 9 2 19 5 30 7l370 82c5 1 12 3 19 4 3 0 6 0 9 0l9 0 10-2c4 0 7-1 9-2l370-82c11-2 21-5 30-7 9-3 20-7 31-15 12-9 23-21 30-35l3-6 3-9c3-9 4-17 4-24 1-9 1-20 1-31v-56z" horiz-adv-x="1000" />

<glyph glyph-name="icon-book-open_sm" unicode="&#xe838;" d="M1000 640c0 29 0 47-1 62-1 13-3 18-4 21-5 9-13 17-22 22-3 1-8 3-21 4-15 1-33 1-62 1h-20c-57 0-96 0-127-2-30-3-48-8-61-14-28-15-51-38-66-66-6-13-11-30-13-61-2-15-2-33-3-54l0-73v-435c25 20 54 35 84 44 38 12 78 11 137 11h69c29 0 47 0 62 1 13 1 18 3 21 5 9 4 17 12 22 21 1 3 3 8 4 21 1 15 1 33 1 62v430z m-900-430c0-29 0-47 1-62 1-13 3-18 5-21 4-9 12-17 21-21 3-2 8-4 21-5 15-1 33-1 62-1h69c59 0 99 1 137-11 30-9 59-24 84-44v435c0 57 0 96-2 127-3 31-8 48-14 61-15 28-38 51-66 66-13 6-30 11-61 14-31 2-70 2-127 2h-20c-29 0-47 0-62-1-13-1-18-3-21-4-9-5-17-13-21-22-2-3-4-8-5-21-1-15-1-33-1-62v-430z m1000 0c0-27 0-51-1-70-2-19-6-39-15-58-15-28-38-51-66-66-19-9-38-13-58-14-19-2-43-2-70-2h-69c-65 0-88-1-108-7-18-5-36-15-51-27-16-13-29-32-65-86l-5-8c-10-14-25-22-42-22-17 0-32 8-42 22l-5 8c-36 54-49 73-65 86-15 12-33 22-51 27-20 6-42 7-108 7h-69c-27 0-51 0-70 2-19 1-39 5-58 14-28 15-51 38-66 66-9 19-13 39-14 58-2 19-2 43-2 70v430c0 27 0 51 2 70 1 20 5 39 14 58 15 28 38 51 66 66 19 9 39 13 58 15 19 1 43 1 70 1h20c55 0 100 0 135-3 37-3 69-9 99-24 34-18 63-43 86-73 23 30 52 55 87 73 29 15 61 21 98 24 35 3 80 3 135 3h20c27 0 51 0 70-1 20-2 39-6 58-15 28-15 51-38 66-66 9-19 13-38 15-58 1-19 1-43 1-70v-430z" horiz-adv-x="1100" />

<glyph glyph-name="icon-calander_sm" unicode="&#xe839;" d="M818 396h-727v-282c0-39 0-66 2-86 1-20 4-30 8-38 9-17 22-31 40-39 7-4 17-7 37-8 20-2 47-2 86-2h382c38 0 65 0 85 2 20 1 30 4 38 8 17 8 31 22 39 39 4 8 7 18 9 38 1 20 1 47 1 86v282z m-227 227v45h-273v-45c0-25-20-46-45-46-25 0-46 21-46 46v45c-20 0-36 0-49-1-20-2-30-5-37-9-18-8-31-22-40-39-4-8-7-18-8-38-2-20-2-47-2-85v-10h727v10c0 38 0 65-1 85-2 20-5 30-9 38-8 17-22 31-39 39-8 4-18 7-38 9-13 1-29 1-49 1v-45c0-25-20-46-46-46-25 0-45 21-45 46z m318-509c0-38 0-69-2-94-2-25-6-49-18-71-17-34-45-62-79-79-22-11-46-16-71-18-25-2-56-2-93-2h-382c-38 0-69 0-94 2-25 2-49 7-71 18-34 17-62 45-79 79-11 22-16 46-18 71-2 25-2 56-2 94v382c0 37 0 68 2 93 2 25 7 49 18 71 17 34 45 62 79 79 22 12 46 16 71 18 17 1 36 2 57 2v46c0 25 21 45 46 45 25 0 45-20 45-45v-46h273v46c0 25 20 45 45 45 26 0 46-20 46-45v-46c21 0 40-1 57-2 25-2 49-6 71-18 34-17 62-45 79-79 12-22 16-46 18-71 2-25 2-56 2-93v-382z" horiz-adv-x="909" />

<glyph glyph-name="icon-coin_sm" unicode="&#xe83a;" d="M909 350c0 226-183 409-409 409-226 0-409-183-409-409 0-226 183-409 409-409 226 0 409 183 409 409z m-295 121c0 34-27 61-61 61h-98c-38 0-69-31-69-68 0-38 31-68 69-68h91c87 0 159-72 159-160 0-87-72-159-159-159v-22c0-26-21-46-46-46-25 0-45 20-45 46v22h-8c-84 0-151 68-151 152 0 25 20 45 45 45 25 0 45-20 45-45 0-34 28-61 61-61h99c37 0 68 31 68 68 0 38-31 69-68 69h-91c-88 0-159 71-159 159 0 88 71 159 159 159v23c0 25 20 45 45 45 25 0 46-20 46-45v-23h7c84 0 152-68 152-152 0-25-21-45-46-45-25 0-45 20-45 45z m386-121c0-276-224-500-500-500-276 0-500 224-500 500 0 276 224 500 500 500 276 0 500-224 500-500z" horiz-adv-x="1000" />

<glyph glyph-name="icon-chats_sm" unicode="&#xe83b;" d="M909 250c0 26 0 43-1 56-1 12-3 17-4 19-4 9-11 16-20 20-2 1-7 3-19 4-13 1-30 1-56 1h-254c-27 0-44 0-56-1-13-1-17-3-20-4-8-4-15-11-19-20-2-2-3-7-4-19-1-13-1-30-1-56v-114c0-26 0-43 1-56 1-13 2-17 4-19 4-9 11-16 19-20 3-1 7-3 20-4 12-1 29-1 56-1h81c16 0 29 0 42-2 11-2 22-6 32-10 12-6 23-14 35-22l28-20v8c0 25 20 46 45 46 22 0 36 0 47 1 10 0 14 1 16 2 11 5 20 14 25 25 0 2 2 6 2 16 1 11 1 25 1 47v123z m-136 336c0 39 0 66-2 86-2 20-4 30-8 38-9 17-23 31-40 39-7 4-17 7-37 8-21 2-47 2-86 2h-336c-39 0-66 0-86-2-20-1-30-4-37-8-18-8-31-22-40-39-4-8-7-18-8-38-2-20-2-47-2-86v-211c0-25 0-32 1-38 6-40 37-71 77-77 40-6 84-38 84-91v-49l111 112v18c0 25 0 46 1 63 2 18 5 36 14 54 13 25 33 46 59 59 17 9 35 12 53 14 18 1 39 1 64 1h218v145z m91-146c3 0 6 0 9 0 18-2 35-5 53-14 25-13 46-34 59-59 9-18 12-36 14-54 1-17 1-38 1-63v-123c0-21 0-39-1-53-1-15-3-30-9-45-14-33-41-60-74-74-15-6-30-8-45-9-2 0-5 0-7-1v-50c0-17-10-32-25-40-15-8-33-7-47 3l-99 69c-15 10-18 12-21 14-3 1-7 2-10 3-4 1-7 1-26 1h-81c-25 0-46 0-64 1-18 2-36 5-53 14-26 13-46 34-59 59-9 18-12 35-14 53-1 10-1 20-1 31l-62-63c-9-9-18-18-26-25-7-5-21-17-41-19-21-1-43 8-57 24-13 15-15 33-15 42-1 10-1 23-1 36v70c-1 0-3 2-6 2-80 12-142 74-154 154-2 14-2 29-2 51v211c0 38 0 69 2 94 2 25 7 49 18 71 17 34 45 62 79 79 22 11 46 16 71 18 25 2 56 2 94 2h336c37 0 68 0 93-2 26-2 49-7 71-18 35-17 62-45 80-79 11-22 16-46 18-71 2-25 2-56 2-94v-146z" horiz-adv-x="1000" />

<glyph glyph-name="icon-comments-alt_sm" unicode="&#xe83c;" d="M500 146c0 114-90 204-198 204-109 0-199-90-199-204 0-23 4-45 10-66 3-8 6-18 8-26 1-7 1-13 1-20-1-8-3-16-4-23l-14-62 71 10c6 1 14 2 21 2l9 0c3-1 5-1 8-2 8-1 17-5 24-7 20-7 42-11 65-11 108 0 198 90 198 205z m91 0c0-8 0-16-1-23 1 0 2 0 3 0 40 0 78 7 114 20 6 3 15 6 22 8 7 1 12 2 19 2 7 0 15-2 21-3l133-19-17 137c0 6-1 13-1 21 0 6 1 11 2 17 2 8 5 16 7 22 14 35 21 73 21 113 0 175-143 318-321 318-177 0-320-143-320-318 0-1 0-1 0-2 9 1 19 2 29 2 160 0 289-133 289-295z m414 295c0-51-10-100-27-145-1-4-2-7-3-9 0 0 0 0 0 0 0 0 0-1 0-1 0-1 0-3 1-7l18-149c1-7 2-15 2-23 0-7 0-19-6-31-7-16-19-28-35-34-12-6-24-6-31-5-8 0-16 1-23 2l-145 21c-4 1-6 1-8 2 0 0 0 0 0 0 0 0 0-1-1-1-1 0-4-1-9-3-45-17-94-26-145-26-8 0-16 0-24 1-43-107-146-183-267-183-34 0-65 6-95 16-5 2-8 3-10 4-1 0-1 0-1 0 0 0 0 0-1 0-1 0-3-1-7-1l-136-19c-15-2-30 4-40 15-10 11-14 26-11 40l28 126c1 4 1 7 2 8 0 0 0 1 0 1 0 0 0 0-1 1 0 2-1 6-3 11-10 29-15 61-15 94 0 119 70 223 171 269-1 9-1 17-1 26 0 226 184 409 411 409 227 0 412-183 412-409z" horiz-adv-x="1045" />

<glyph glyph-name="icon-cycle_sm" unicode="&#xe83d;" d="M354 793c24 6 48-9 54-34 6-24-10-49-34-54-65-15-126-47-177-98-142-142-142-372 0-514 54-54 93-89 121-112v187c0 25 21 46 46 46 25 0 45-21 45-46v-273c0-25-20-45-45-45h-273c-25 0-45 20-45 45 0 26 20 46 45 46h134c-25 23-56 51-92 88-177 177-177 465 0 642 63 63 140 104 221 122z m146-261v273c0 12 5 23 13 32 9 8 20 13 33 13h272c25 0 46-20 46-45 0-26-21-46-46-46h-134c25-23 56-51 92-88 178-177 178-465 0-642-63-63-140-104-220-122-25-6-49 10-55 34-5 24 10 49 34 54 65 15 126 48 177 98 142 142 142 372 0 514-54 54-93 89-121 112v-187c0-25-20-46-45-46-26 0-46 21-46 46z" horiz-adv-x="909" />

<glyph glyph-name="icon-cash-shield_sm" unicode="&#xe83e;" d="M727 571c0 40 0 48-3 53-2 7-7 14-12 18-5 5-12 8-50 22l-243 92c-5 1-8 2-10 3 0 0 0 0 0 0 0 0 0 0 0 0-2-1-4-2-9-3l-244-92c-38-14-45-17-50-22-5-4-9-11-12-18-2-5-3-13-3-53v-218c0-94 52-180 120-251 68-71 147-122 189-147 3-1 5-2 6-3 2-1 3-1 3-2 1 1 2 1 3 2 1 1 3 2 6 3 43 25 121 76 189 147 69 71 120 157 120 251v218z m-363-445v23h-6c-51 0-94 28-116 69-11 23-3 50 19 62 23 11 50 3 62-19 6-13 20-21 35-21h97c25 0 45 20 45 45 0 25-20 45-45 45h-91c-76 0-137 61-137 137 0 75 61 136 137 136v23c0 25 20 45 45 45 25 0 46-20 46-45v-23h6c50 0 93-28 115-70 12-22 3-49-19-61-22-12-50-3-61 19-7 13-20 21-35 21h-97c-25 0-46-20-46-45 0-25 21-46 46-46h91c75 0 136-61 136-136 0-75-61-136-136-136v-23c0-25-21-46-46-46-25 0-45 21-45 46z m454 227c0-128-70-235-145-314-76-79-163-135-209-162-9-5-20-12-36-16-12-2-26-2-38 0-15 4-27 11-35 16-46 27-133 83-210 162-75 79-145 186-145 314v218c0 32-1 61 9 86 8 21 21 39 37 54 21 18 47 27 78 38l244 92c7 3 17 7 28 8 7 1 13 1 20 1l6-1 8-1c8-2 15-5 21-7l243-92c31-11 58-20 78-38 17-15 29-33 37-54 10-25 9-54 9-86v-218z" horiz-adv-x="818" />

<glyph glyph-name="icon-blog-post_sm" unicode="&#xe83f;" d="M1056-39c30 0 55-25 55-55 0-31-25-56-55-56h-1000c-31 0-56 25-56 56 0 30 25 55 56 55h1000z m-612 522c0 17 0 26 0 32 0 1 0 1 0 1 0 0-1 0-1 0-6 1-15 1-32 1h-267c-16 0-25 0-31-1-1 0-1 0-1 0 0 0 0 0 0-1-1-6-1-15-1-32v-266c0-17 0-26 1-32 0 0 0-1 0-1 0 0 0 0 1 0 6-1 15-1 31-1h267c17 0 26 0 32 1 0 0 1 0 1 0 0 0 0 1 0 1 0 6 0 15 0 32v266z m612-230c30 0 55-25 55-56 0-30-25-55-55-55h-334c-30 0-55 25-55 55 0 31 25 56 55 56h334z m0 305c30 0 55-24 55-55 0-31-25-56-55-56h-334c-30 0-55 25-55 56 0 31 25 55 55 55h334z m0 292c30 0 55-25 55-56 0-30-25-55-55-55h-1000c-31 0-56 25-56 55 0 31 25 56 56 56h1000z m-500-633c0-15 0-29-1-41-1-13-4-28-11-43-11-21-28-38-49-49-15-7-30-10-43-11-12-1-26-1-41-1h-267c-14 0-28 0-41 1-12 1-27 4-42 11-21 11-38 28-49 49-8 15-10 30-11 43-1 12-1 26-1 41v266c0 15 0 29 1 41 1 13 3 28 11 43 11 21 28 38 49 49 15 7 30 10 42 11 13 1 27 1 41 1h267c15 0 29 0 41-1 13-1 28-4 43-11 18-10 34-24 44-41l5-8 4-11c4-11 6-22 7-32 1-12 1-26 1-41v-266z" horiz-adv-x="1111" />

<glyph glyph-name="icon-coin-stack_sm" unicode="&#xe840;" d="M775 525c80 0 155-12 212-32 28-10 54-24 74-41 20-17 39-43 39-77v-375c0-34-19-60-39-77-20-17-46-31-74-41-57-20-132-32-212-32-80 0-155 12-211 32-29 10-55 24-75 41-20 17-39 43-39 77v375c0 34 19 60 39 77 20 17 46 31 75 41 56 20 131 32 211 32z m212-455c-57-21-132-32-212-32-80 0-155 11-211 32-5 1-9 3-14 5v-72c1-1 2-2 4-4 8-7 22-15 44-23 43-15 105-26 177-26 72 0 134 11 177 26 22 8 36 16 44 23 2 2 3 3 4 4v72c-4-2-9-4-13-5z m-662 780c80 0 155-12 212-32 28-10 54-24 74-41 20-17 39-43 39-77v-75c0-28-22-50-50-50-15 0-29 7-38 18-8-4-17-8-25-11-57-20-132-32-212-32-80 0-155 12-211 32-5 2-10 4-14 6v-84c1-1 1-2 3-4 7-6 19-13 38-21 38-15 95-26 161-29 7 0 15 0 23 0 28 0 50-22 50-50 0-28-22-50-50-50-9 0-18 0-27 0-74 3-142 15-194 36-1 0-3 1-4 2v-85c1-1 2-2 4-4 8-7 22-15 44-23 43-15 105-26 177-26 28 0 50-22 50-50 0-28-22-50-50-50-80 0-155 12-211 32-5 2-10 4-14 6v-85c1-1 2-2 4-4 8-7 22-15 44-23 43-15 105-26 177-26 28 0 50-22 50-50 0-28-22-50-50-50-80 0-155 12-211 32-29 10-55 24-75 41-20 17-39 43-39 77v600c0 34 19 60 39 77 20 17 46 31 75 41 56 20 131 32 211 32z m662-593c-57-20-132-32-212-32-80 0-155 12-211 32-5 2-9 4-14 6v-72c1-1 2-3 4-4 8-7 22-15 44-23 43-16 105-26 177-26 72 0 134 10 177 26 22 8 36 16 44 23 2 1 3 3 4 4v72c-4-2-9-4-13-6z m-212 168c-72 0-134-11-177-26-22-8-36-16-44-23 0 0 0-1-1-1 1 0 1-1 1-1 8-7 22-15 44-23 43-15 105-26 177-26 72 0 134 11 177 26 22 8 36 16 44 23 0 0 1 1 1 1 0 0-1 1-1 1-8 7-22 15-44 23-43 15-105 26-177 26z m-450 325c-72 0-134-11-177-26-22-8-36-16-44-23 0 0 0-1-1-1 1 0 1-1 1-1 8-7 22-15 44-23 43-15 105-26 177-26 72 0 134 11 177 26 22 8 36 16 44 23 0 0 1 1 1 1 0 0-1 1-1 1-8 7-22 15-44 23-43 15-105 26-177 26z" horiz-adv-x="1100" />

<glyph glyph-name="icon-discord_sm" unicode="&#xe841;" d="M1247 150l-153 606c-4 16-13 30-25 41-12 11-27 19-43 21l-188 31c-20 3-42-1-59-13-18-11-30-29-36-49l-1-4c-1-3-1-6 0-9 0-3 1-6 3-8 2-2 4-4 6-6 2-2 5-3 8-3 43-6 86-16 127-29 11-3 19-10 25-20 5-9 7-20 5-31-2-5-4-10-8-15-3-4-8-8-13-11-5-3-10-4-16-5-5-1-11 0-17 2-154 47-318 47-472 0-11-3-22-3-32 2-10 5-18 13-22 23-2 6-3 11-2 17 0 5 1 11 4 16 2 5 6 9 10 13 4 4 9 6 14 8 42 14 86 24 129 30 3 0 6 1 8 3 3 2 5 4 6 6 2 2 3 5 4 8 0 3 0 6-1 9l-1 4c-5 20-18 38-36 49-17 12-38 16-59 13l-188-31c-16-3-31-10-43-21-12-11-21-25-25-41l-153-606c-5-19-3-39 6-57 8-17 23-31 41-39l349-155c10-5 22-7 33-7 12-1 23 2 33 6 11 5 21 11 29 19 8 9 14 18 18 29l18 49c1 3 1 7 1 10 0 3-1 6-3 9-1 2-4 5-6 6-3 2-6 3-9 3-51 7-101 17-149 33-11 3-19 10-25 19-5 9-7 21-4 31 1 6 4 11 7 15 3 5 8 9 13 11 5 3 10 5 16 5 6 1 11 0 17-1 154-48 320-48 474 0 6 1 11 2 17 1 6 0 11-2 16-5 5-2 10-6 13-11 3-4 6-9 7-15 3-10 1-22-4-31-6-9-14-16-25-19-48-16-98-26-149-33-3 0-6-1-9-3-2-1-4-4-6-6-2-3-3-6-3-9 0-3 0-7 1-10l18-49c4-11 10-20 18-29 8-8 18-14 29-19 10-4 22-7 33-6 12 0 23 2 33 7l349 155c18 8 33 22 42 39 8 18 10 38 5 57z m-809 117c-13 0-25 3-35 10-10 7-18 17-23 28-5 12-6 24-4 36 3 13 9 24 17 32 9 9 20 15 32 17 12 3 25 2 36-3 12-5 22-13 28-23 7-10 11-22 11-35 0-16-7-32-18-44-12-12-28-18-44-18z m375 0c-13 0-25 3-35 10-10 7-18 17-23 28-5 12-6 24-4 36 3 13 9 24 17 32 9 9 20 15 32 17 12 3 25 2 36-3 12-5 22-13 28-23 7-10 11-22 11-35 0-16-7-32-18-44-12-12-28-18-44-18z" horiz-adv-x="1286" />

<glyph glyph-name="icon-columns_sm" unicode="&#xe842;" d="M900 560c0 43 0 72-2 94-2 22-5 34-9 41-9 19-25 35-44 44-7 4-19 7-41 9-22 2-51 2-94 2h-10v-800h10c43 0 72 0 94 2 22 2 34 5 41 9 19 9 35 25 44 44 4 7 7 19 9 41 2 22 2 51 2 94v420z m-500-610h200v800h-200v-800z m-300 190c0-43 0-72 2-94 2-22 5-34 9-41 10-19 25-35 44-44 7-4 19-7 41-9 22-2 51-2 94-2h10v800h-10c-43 0-72 0-94-2-22-2-34-5-41-9-19-9-34-25-44-44-4-7-7-19-9-41-2-22-2-51-2-94v-420z m900 0c0-41 0-75-2-103-2-28-7-54-20-78-19-37-50-68-87-87-24-13-50-18-78-20-28-2-62-2-103-2h-420c-41 0-75 0-103 2-28 2-54 7-78 20-37 19-68 50-87 87-13 24-17 50-20 78-2 28-2 62-2 103v420c0 41 0 75 2 103 3 28 7 54 20 78 19 37 50 68 87 87 24 13 50 18 78 20 28 2 62 2 103 2h420c41 0 75 0 103-2 28-2 54-7 78-20 37-19 68-50 87-87 13-24 18-50 20-78 2-28 2-62 2-103v-420z" horiz-adv-x="1000" />

<glyph glyph-name="icon-envelope_sm" unicode="&#xe843;" d="M1111 524l-202-135c-15-10-28-19-43-25-12-5-24-9-37-11-16-3-31-3-49-3h-337c-18 0-34 0-50 3-13 2-25 6-37 11-15 6-28 15-43 25l-202 135v-352c0-47 0-80 2-105 2-24 6-36 10-45 11-21 28-38 49-49 9-4 21-8 45-10 25-2 58-2 105-2h578c48 0 80 0 105 2 24 2 37 6 46 10 20 11 37 28 48 49 4 9 8 21 10 45 2 25 2 58 2 105v352z m-789 215c-47 0-80 0-105-2-24-2-36-6-45-10-21-11-38-28-49-49-3-5-5-13-7-24l259-172c18-12 22-15 25-16 4-2 9-3 13-4 4-1 8-1 30-1h337c21 0 26 0 30 1 4 1 8 2 12 4 3 1 7 4 25 16l259 172c-2 11-4 19-7 24-11 21-28 38-48 49-9 4-22 8-46 10-25 2-57 2-105 2h-578z m900-567c0-45 0-83-2-114-3-31-8-60-22-87-21-42-55-76-97-97-27-14-56-19-87-22-31-2-68-2-114-2h-578c-45 0-83 0-114 2-31 3-60 8-87 22-41 21-75 55-97 97-13 27-19 56-22 87-2 31-2 69-2 114v356c0 34 0 64 1 89-2 10-1 19 2 28 3 30 8 58 21 84 22 42 56 76 97 97 27 14 56 19 87 22 31 2 69 2 114 2h578c46 0 83 0 114-2 31-3 60-8 87-22 42-21 76-55 97-97 13-26 19-54 21-84 3-9 4-18 2-28 1-25 1-55 1-89v-356z" horiz-adv-x="1222" />

<glyph glyph-name="icon-book-closed_sm" unicode="&#xe844;" d="M727 659c0 26 0 43-1 56-1 12-3 17-4 19-4 9-11 16-19 20-3 1-7 3-20 4-13 1-29 1-56 1h-363c-39 0-66 0-86-2-20-1-30-4-37-8-18-8-31-22-40-39-4-8-7-18-8-38-2-20-2-47-2-86v-397c27 16 58 25 91 25h545v445z m-545-536c-46 0-85-35-90-80 0-5 0-10 1-15 1-20 4-30 8-38 9-17 22-31 40-39 7-4 17-7 37-8 20-2 47-2 86-2h363c27 0 43 0 56 1 13 1 17 3 20 4 8 4 15 11 19 20 1 2 3 7 4 19 1 13 1 30 1 56v82h-545z m636-91c0 0 0-1 0-1 0-21 0-39-1-54-2-18-5-35-14-53-13-25-34-46-59-59-17-9-35-12-53-14-18-1-39-1-64-1h-363c-38 0-69 0-94 2-25 2-49 7-71 18-34 17-62 45-79 79-11 21-15 44-18 69-1 4-2 9-2 14 0 5 0 10 1 15-1 19-1 42-1 67v472c0 38 0 69 2 94 2 25 7 49 18 71 17 34 45 62 79 79 22 11 46 16 71 18 25 2 56 2 94 2h363c25 0 46 0 64-1 18-2 36-5 53-14 25-13 46-34 59-59 9-18 12-35 14-53 1-18 1-39 1-64v-627z" horiz-adv-x="818" />

<glyph glyph-name="icon-collapse_sm" unicode="&#xe845;" d="M500-100v900c0 28 22 50 50 50 28 0 50-22 50-50v-900c0-28-22-50-50-50-28 0-50 22-50 50z m-360 685c19 20 51 20 70 0l200-200c20-19 20-51 0-70l-200-200c-19-20-51-20-70 0-20 19-20 51 0 70l114 115h-204c-28 0-50 22-50 50 0 28 22 50 50 50h204l-114 115c-20 19-20 51 0 70z m750 0c19 20 51 20 70 0 20-19 20-51 0-70l-114-115h204c28 0 50-22 50-50 0-28-22-50-50-50h-204l114-115c20-19 20-51 0-70-19-20-51-20-70 0l-200 200c-20 19-20 51 0 70l200 200z" horiz-adv-x="1100" />

<glyph glyph-name="icon-cash-bill_sm" unicode="&#xe846;" d="M1111 105v597c0 2 0 4 0 5 0 0 0 0 0 0 0 0 0 0-1 1-29 12-94 31-221 31-102 0-192-25-282-53-87-27-180-58-274-58-57 0-108 6-151 14-29 6-49 10-63 11-2 1-5 1-7 1 0-1 0-3 0-4-1-12-1-29-1-55v-602c0 0 0 0 1 0 0 0 0 0 0-1 29-12 94-31 221-31 102 0 193 25 283 53 87 27 179 58 273 58 57 0 108-6 151-14 29-6 49-9 63-11 3-1 5-1 7-1 0 1 0 3 0 4 1 12 1 29 1 55z m-1002-111c0 0 0 0 0 0-1 0-1 0-1 0 0 0 1 0 1 0z m113 189v223c0 30 25 55 56 55 31 0 55-25 55-55v-223c0-30-24-55-55-55-31 0-56 25-56 55z m472 167c0 46-37 83-83 83-46 0-83-37-83-83 0-46 37-83 83-83 46 0 83 37 83 83z m195-56v223c0 30 25 55 55 55 31 0 56-25 56-55v-223c0-30-25-55-56-55-30 0-55 25-55 55z m225 412c0 0 0 0 0 0 0 0 0 0 0 0 0 0 0 0 0 0z m-308-356c0-107-87-194-195-194-107 0-194 87-194 194 0 107 87 194 194 194 108 0 195-87 195-194z m416-245c0-24 0-46-1-62-1-15-3-36-14-55-6-10-13-21-25-30-11-9-23-15-34-19-21-7-44-5-60-3-18 3-41 7-69 13-37 7-81 12-130 12-73 0-147-24-241-53-90-28-194-58-315-58-141 0-223 22-268 42-2 1-8 3-15 7-6 4-11 9-16 13-7 7-12 15-16 20-3 5-8 14-11 23-7 19-7 32-7 43v597c0 25 0 46 1 62 1 15 3 36 14 55l5 7c5 8 12 16 20 23 11 9 23 15 34 19 21 7 44 5 60 3 18-3 41-7 69-13 37-7 81-12 130-12 73 0 148 24 241 53 91 28 195 58 315 58 141 0 223-22 269-42 2-1 8-3 14-7 6-4 11-9 16-13 7-7 13-15 16-20 2-4 6-10 9-16l3-7 4-13c2-12 2-22 2-30v-597z" horiz-adv-x="1222" />

<glyph glyph-name="icon-flash_sm" unicode="&#xe847;" d="M543 850c15 0 29-7 37-20 9-12 11-27 5-41l-79-212h258c13 0 25 0 35-1 8 0 22-2 35-11l6-4 6-5c13-14 19-32 18-51-1-20-12-34-17-40-7-8-15-17-24-26l-554-575c-15-15-38-18-56-8-18 11-27 32-21 52l119 397h-221c-9 0-18 0-27 0-8 1-21 3-34 12-15 11-26 27-28 46-3 15 2 28 5 36 3 7 7 16 11 24l191 382c2 4 8 16 17 26 7 7 16 12 25 15 13 5 26 4 31 4h262z m-438-455h267c15 0 28-6 37-18 8-11 11-26 7-40l-83-275 410 424h-303c-14 0-28 8-37 20-8 12-10 28-5 42l79 211h-190l-182-364z" horiz-adv-x="909" />

<glyph glyph-name="icon-compass_sm" unicode="&#xe848;" d="M523 600c0 38-31 68-68 68-38 0-69-30-69-68 0-38 31-68 69-68 37 0 68 30 68 68z m-31-155c-12-2-25-4-37-4-13 0-26 2-38 4l-183-316c66-33 141-52 221-52 79 0 154 19 221 52l-184 316z m122 155c0-42-17-80-44-109l183-315c28 21 54 45 77 71 16 18 45 20 64 4 19-17 20-46 4-65-30-33-63-63-99-89l104-179c13-21 5-49-16-62-22-13-50-5-63 17l-103 177c-80-41-170-64-266-64-96 0-187 23-267 64l-103-177c-13-22-41-30-62-17-22 13-30 41-17 62l104 179c-36 26-69 56-99 89-16 19-14 48 4 65 19 16 48 14 65-4 23-26 48-50 76-71l183 315c-27 29-43 67-43 109 0 72 47 133 113 153v52c0 25 21 45 46 45 25 0 45-20 45-45v-52c66-20 114-81 114-153z" horiz-adv-x="909" />

<glyph glyph-name="icon-question_sm" unicode="&#xe849;" d="M909 350c0 226-183 409-409 409-226 0-409-183-409-409 0-226 183-409 409-409 226 0 409 183 409 409z m-409-182c26 0 46-20 46-45 0-25-20-46-46-46h0c-25 0-45 21-45 46 0 25 20 45 45 45h0z m-96 430c37 22 81 30 123 22 42-7 81-29 109-62 27-33 42-74 42-117 0-70-51-116-88-140-20-13-39-23-54-29-7-4-13-6-18-8-2-1-4-1-5-2 0 0-1 0-1 0-1 0-1 0-1 0 0 0 0 0 0 0l0-1c0 0 0 0-15 44l15-44c-24-7-50 5-58 29-8 24 5 50 29 58l1 0c0 0 2 1 3 1 3 1 8 3 13 6 11 5 26 12 40 22 32 20 48 43 48 64v0c0 22-7 42-21 59-14 16-33 27-54 31-21 3-43-1-62-11-18-11-32-28-39-49-9-23-35-36-58-27-24 8-36 34-28 58 14 40 42 74 79 96z m596-248c0-276-224-500-500-500-276 0-500 224-500 500 0 276 224 500 500 500 276 0 500-224 500-500z" horiz-adv-x="1000" />

<glyph glyph-name="icon-key_sm" unicode="&#xe84a;" d="M900 500c0 138-112 250-250 250-138 0-250-112-250-250 0-11 1-23 2-34 2-10 3-19 4-27 0-7 1-16 0-26-2-13-6-23-12-34-8-14-20-26-30-35l-255-256c-5-4-7-7-9-9 0 0 0 0 0 0v0c0-2 0-6 0-12v-87c0-15 0-23 1-29 0 0 0 0 0 0 0 0 0 0 0-1 6 0 14 0 29 0h70v50c0 28 22 50 50 50h50v50c0 28 22 50 50 50h79l65 64c9 10 21 22 35 30l8 4c8 4 16 6 26 8l7 0c7 1 14 0 19 0 8-1 17-2 27-4 11-1 23-2 34-2 138 0 250 112 250 250z m-200 0c0 13-5 26-15 35-9 10-22 15-35 15-28 0-50 22-50 50 0 28 22 50 50 50 38 0 77-15 106-44 29-29 44-68 44-106 0-28-22-50-50-50-28 0-50 22-50 50z m300 0c0-193-157-350-350-350-16 0-32 1-47 3-11 2-18 3-23 3-1 0-2 0-3 0 0 0 0 0 0 0-3-3-6-6-13-12l-79-79c-9-10-22-15-35-15h-50v-50c0-28-22-50-50-50h-50v-50c0-28-22-50-50-50h-120c-13 0-26 0-37 1-11 1-25 3-38 10-19 9-34 25-44 44-7 13-9 27-10 38-1 11-1 24-1 37v87c0 10 0 23 3 36 2 10 6 20 12 29 7 11 16 20 23 27l256 255c6 7 9 10 12 13 0 0 0 0 0 0 0 1 0 2 0 3 0 5-1 12-3 23-2 15-3 31-3 47 0 193 157 350 350 350 193 0 350-157 350-350z" horiz-adv-x="1000" />

<glyph glyph-name="icon-happy-chat_sm" unicode="&#xe84b;" d="M857 317v257c0 41 0 68-2 90-1 21-4 31-8 39-9 18-24 32-42 41-7 4-18 7-39 9-21 2-49 2-90 2h-400c-41 0-68 0-90-2-21-2-31-5-39-9-18-9-32-23-41-41-4-8-7-18-9-39-2-22-2-49-2-90v-295c0-48 1-62 4-73 8-33 34-58 67-67 10-3 25-3 72-3 26 0 48-22 48-48v-91l98 78c22 18 37 31 56 40 15 8 31 13 48 17 20 4 41 4 68 4h120c41 0 69 0 90 2 21 1 32 4 39 8 18 9 33 24 42 42 4 7 7 18 8 39 2 21 2 49 2 90z m-512 65l0 0c0 0 0 0 0 0 0-1 1-1 2-2 1-1 3-3 6-6 6-5 14-12 26-19 23-15 56-29 97-29 41 0 74 14 97 29 12 7 21 14 27 19 3 3 5 5 6 6 1 1 1 1 1 2 0 0 0 0 0 0l0 0 0 0 0-1c17 20 47 22 67 5 20-17 22-48 5-67l-1-1c0 0 0 0 0 0 0 0 0-1-1-1-1-1-2-2-3-3-3-3-6-6-11-11-9-8-22-18-39-29-34-21-84-43-148-43-63 0-113 22-147 43-17 11-31 21-40 29-4 5-8 8-11 11-1 1-2 2-3 3 0 0 0 1-1 1 0 0 0 0 0 0l0 1c-18 19-16 50 4 67 19 16 46 15 64-1l3-3z m0 278c40 0 72-32 72-72 0-39-32-71-72-71-39 0-71 32-71 71 0 40 32 72 71 72z m262 0c40 0 72-32 72-72 0-39-32-71-72-71-39 0-71 32-71 71 0 40 32 72 71 72z m345-343c0-40 0-72-2-98-2-27-7-51-18-74-19-36-48-65-84-84-23-12-47-16-74-18-26-3-59-2-98-2h-120c-31 0-40-1-49-2-8-2-16-5-24-9-8-4-15-9-40-29l-113-91c-9-7-19-15-27-20-8-5-22-14-41-14-22 0-42 10-56 27-12 14-14 31-15 40-1 10 0 22 0 34v64c-19 1-35 2-50 6-65 18-117 69-134 135-7 25-7 55-7 97v295c0 39 0 71 2 98 2 26 7 51 19 74 18 36 47 65 83 83 23 12 48 17 75 19 26 2 58 2 97 2h400c39 0 72 0 98-2 27-2 51-7 74-19 36-18 65-47 84-83 11-23 16-48 18-74 2-27 2-59 2-98v-257z" horiz-adv-x="952" />

<glyph glyph-name="icon-lock_sm" unicode="&#xe84c;" d="M800 210c0 43 0 72-2 94-2 22-5 34-9 41-9 19-25 35-44 44-7 4-19 7-41 9-22 2-51 2-94 2h-320c-43 0-72 0-94-2-22-2-34-5-41-9-19-9-34-25-44-44-4-7-7-19-9-41-2-22-2-51-2-94v-70c0-43 0-72 2-94 2-22 5-34 9-41 10-19 25-35 44-44 7-4 19-7 41-9 22-2 51-2 94-2h320c43 0 72 0 94 2 22 2 34 5 41 9 19 9 35 25 44 44 4 7 7 19 9 41 2 22 2 51 2 94v70z m-400-85v100c0 28 22 50 50 50 28 0 50-22 50-50v-100c0-28-22-50-50-50-28 0-50 22-50 50z m250 425c0 111-89 200-200 200-110 0-200-89-200-200v-50c13 0 26 0 40 0h320c14 0 28 0 40 0v50z m100-58c14-3 28-7 41-14 37-19 68-50 87-87 13-24 18-50 20-78 2-28 2-62 2-103v-70c0-41 0-75-2-103-2-28-7-54-20-78-19-37-50-68-87-87-24-13-50-18-78-20-28-2-62-2-103-2h-320c-41 0-75 0-103 2-28 2-54 7-78 20-37 19-68 50-87 87-13 24-17 50-20 78-2 28-2 62-2 103v70c0 41 0 75 2 103 3 28 7 54 20 78 19 37 50 68 87 87 13 7 27 11 41 14v58c0 166 134 300 300 300 166 0 300-134 300-300v-58z" horiz-adv-x="900" />

<glyph glyph-name="icon-intersect_sm" unicode="&#xe84d;" d="M909 386c0 27 0 44-1 56-1 13-3 17-4 20-4 8-11 15-20 19-2 2-7 3-19 4-13 1-30 1-56 1h-82v-172c0-25 0-46-1-64-2-18-5-36-14-53-13-25-33-46-59-59-17-9-35-12-53-14-18-1-39-1-64-1h-172v-82c0-26 0-43 1-56 1-12 3-17 4-19 4-9 11-16 19-20 3-1 7-3 20-4 13-1 29-1 56-1h345c26 0 43 0 56 1 12 1 17 3 19 4 9 4 16 11 20 20 1 2 3 7 4 19 1 13 1 30 1 56v345z m-545-172h172c27 0 44 0 56 1 13 1 17 3 20 4 8 4 15 11 19 20 2 2 3 6 4 19 1 13 1 29 1 56v172h-172c-27 0-43 0-56-1-13-1-17-2-20-4-8-4-15-11-19-19-1-3-3-7-4-20-1-12-1-29-1-56v-172z m272 445c0 26 0 43-1 56-1 12-2 17-4 19-4 9-11 16-19 20-3 1-7 3-20 4-12 1-29 1-56 1h-345c-26 0-43 0-56-1-12-1-17-3-19-4-9-4-16-11-20-20-1-2-3-7-4-19-1-13-1-30-1-56v-345c0-27 0-43 1-56 1-13 3-17 4-19 4-9 11-16 20-20 2-1 7-3 19-4 13-1 30-1 56-1h82v172c0 25 0 46 1 64 2 18 5 36 14 53 13 26 34 46 59 59 17 9 35 12 53 14 18 1 39 1 64 1h172v82z m91-82h82c25 0 46 0 64-1 18-2 35-5 53-14 25-13 46-33 59-59 9-17 12-35 14-53 1-18 1-39 1-64v-345c0-25 0-46-1-64-2-18-5-35-14-53-13-25-34-46-59-59-18-9-35-12-53-14-18-1-39-1-64-1h-345c-25 0-46 0-64 1-18 2-36 5-53 14-25 13-46 34-59 59-9 18-12 35-14 53-1 18-1 39-1 64v82h-82c-25 0-46 0-63 1-18 2-36 5-54 14-25 13-46 34-59 59-9 17-12 35-14 53-1 18-1 39-1 64v345c0 25 0 46 1 64 2 18 5 35 14 53 13 25 34 46 59 59 18 9 36 12 54 14 17 1 38 1 63 1h345c25 0 46 0 64-1 18-2 36-5 53-14 26-13 46-34 59-59 9-18 12-35 14-53 1-18 1-39 1-64v-82z" horiz-adv-x="1000" />

<glyph glyph-name="icon-heart_sm" unicode="&#xe84e;" d="M1000 476c0 137-104 274-244 274-82 0-136-41-168-79-9-11-23-17-38-17-15 0-29 6-38 17-32 38-85 79-168 79-140 0-244-137-244-274 0-66 26-132 68-196 43-63 101-122 161-172 60-51 120-92 165-120 23-14 42-25 56-32 0 0 0 0 0 0 0 0 0 0 0 0 14 7 33 18 56 32 45 28 106 69 165 120 60 50 118 109 161 172 42 64 68 130 68 196z m100 0c0-92-36-177-85-251-50-74-115-140-179-194-65-54-129-98-178-128-24-15-45-27-60-35-8-4-14-8-19-10-2-1-5-2-7-3-1-1-3-2-5-2-1-1-3-1-5-2-1 0-6-1-12-1-6 0-11 1-12 1-2 1-4 1-5 2-2 0-3 1-5 2-2 1-4 2-7 3-5 2-11 6-19 10-15 8-36 20-60 35-49 30-113 74-177 128-65 54-130 120-180 194-49 74-85 159-85 251 0 175 133 374 344 374 92 0 159-36 206-76 47 40 114 76 206 76 211 0 344-199 344-374z" horiz-adv-x="1100" />

<glyph glyph-name="icon-flash-box_sm" unicode="&#xe84f;" d="M900 560c0 43 0 72-2 94-2 22-5 34-9 41-9 19-25 35-44 44-7 4-19 7-41 9-22 2-51 2-94 2h-420c-43 0-72 0-94-2-22-2-34-5-41-9-19-9-34-25-44-44-4-7-7-19-9-41-2-22-2-51-2-94v-420c0-43 0-72 2-94 2-22 5-34 9-41 10-19 25-35 44-44 7-4 19-7 41-9 22-2 51-2 94-2h420c43 0 72 0 94 2 22 2 34 5 41 9 19 9 35 25 44 44 4 7 7 19 9 41 2 22 2 51 2 94v420z m-440 120c13 17 35 24 56 18 20-7 34-26 34-48v-175h146c12 0 24 0 34-1 8-1 22-2 36-11l6-4 6-5c12-12 20-27 22-44l1-8-1-7c-1-16-8-28-12-35-5-9-12-19-19-28l-229-312c-12-17-35-24-56-17-20 6-34 25-34 47v175h-146c-12 0-24 0-34 1-9 1-26 3-42 15-17 14-28 35-29 57 0 19 8 34 13 42 5 9 12 19 19 28l229 312z m-136-355h176c28 0 50-22 50-50v-72l126 172h-176c-28 0-50 22-50 50v72l-126-172z m676-185c0-41 0-75-2-103-2-28-7-54-20-78-19-37-50-68-87-87-24-13-50-18-78-20-28-2-62-2-103-2h-420c-41 0-75 0-103 2-28 2-54 7-78 20-37 19-68 50-87 87-13 24-17 50-20 78-2 28-2 62-2 103v420c0 41 0 75 2 103 3 28 7 54 20 78 19 37 50 68 87 87 24 13 50 18 78 20 28 2 62 2 103 2h420c41 0 75 0 103-2 28-2 54-7 78-20 37-19 68-50 87-87 13-24 18-50 20-78 2-28 2-62 2-103v-420z" horiz-adv-x="1000" />

<glyph glyph-name="icon-envelope-alt_sm" unicode="&#xe850;" d="M1111 521l-252-176 252-228c0 16 0 34 0 55v349z m-366-256c-33-23-61-44-94-52-26-7-54-7-80 0-33 8-61 29-94 52l-20 14-315-284c9-9 19-16 30-22 9-4 21-8 45-10 25-2 58-2 105-2h578c48 0 80 0 105 2 24 2 37 6 46 10 11 6 20 13 29 22l-315 284-20-14z m-423 474c-47 0-80 0-105-2-24-2-36-6-45-10-21-11-38-28-49-49-3-6-5-13-7-25l425-297c41-29 49-33 57-35 9-3 18-3 27 0 7 2 16 6 56 35l56 39c0 0 0 0 0 0l369 258c-2 12-4 19-7 25-11 21-28 38-48 49-9 4-22 8-46 10-25 2-57 2-105 2h-578z m-211-622l252 228-252 176v-349c0-21 0-39 0-55z m1111 55c0-45 0-83-2-114-3-31-8-60-22-87-21-42-55-76-97-97-27-14-56-19-87-22-31-2-68-2-114-2h-578c-45 0-83 0-114 2-31 3-60 8-87 22-41 21-75 55-97 97-13 27-19 56-22 87-2 31-2 69-2 114v356c0 34 0 64 1 90-2 9-1 18 2 27 3 30 8 58 21 84 22 42 56 76 97 97 27 14 56 19 87 22 31 2 69 2 114 2h578c46 0 83 0 114-2 31-3 60-8 87-22 42-21 76-55 97-97 13-26 19-54 21-84 3-9 4-18 2-27 1-26 1-56 1-90v-356z" horiz-adv-x="1222" />

<glyph glyph-name="icon-flash-forward_sm" unicode="&#xe851;" d="M759 829c14 19 38 26 59 18 22-9 35-31 32-54l-43-318h190c12 0 24 0 34-1 8-1 22-2 36-11l5-4 7-5c13-13 22-32 22-51 1-19-7-34-12-42-5-9-12-19-18-28l-330-462c-14-19-38-26-59-18-22 9-35 31-32 54l43 318h-190c-12 0-24 0-34 1-9 1-26 3-41 15-18 13-28 34-29 56-1 19 7 34 12 43 5 8 12 18 19 27l329 462z m-359-704c28 0 50-22 50-50 0-28-22-50-50-50h-275c-28 0-50 22-50 50 0 28 22 50 50 50h275z m122 200h228c14 0 28-6 38-17 9-11 14-25 12-40l-24-175 202 282h-228c-14 0-28 6-38 17-9 11-13 25-12 40l24 175-202-282z m-247 75c28 0 50-22 50-50 0-28-22-50-50-50h-225c-28 0-50 22-50 50 0 28 22 50 50 50h225z m125 275c28 0 50-22 50-50 0-28-22-50-50-50h-250c-28 0-50 22-50 50 0 28 22 50 50 50h250z" horiz-adv-x="1150" />

<glyph glyph-name="icon-meter_sm" unicode="&#xe852;" d="M909 350c0 226-183 409-409 409-226 0-409-183-409-409 0-226 183-409 409-409 226 0 409 183 409 409z m-237 237c18 17 47 17 65 0 17-18 17-47 0-65l-149-148c2-8 3-16 3-24 0-50-41-91-91-91-50 0-91 41-91 91 0 50 41 91 91 91 8 0 16-1 23-3l149 149z m-536-237c0 201 163 364 364 364 25 0 46-21 46-46 0-25-21-45-46-45-151 0-273-122-273-273 0-25-20-45-45-45-25 0-46 20-46 45z m864 0c0-276-224-500-500-500-276 0-500 224-500 500 0 276 224 500 500 500 276 0 500-224 500-500z" horiz-adv-x="1000" />

<glyph glyph-name="icon-expand_sm" unicode="&#xe853;" d="M265 185c19 20 51 20 70 0 20-19 20-51 0-70l-164-165h129c28 0 50-22 50-50 0-28-22-50-50-50h-250c-13 0-26 5-35 15-10 9-15 22-15 35v250c0 28 22 50 50 50 28 0 50-22 50-50v-129l165 164z m400 0c19 20 51 20 70 0l165-164v129c0 28 22 50 50 50 28 0 50-22 50-50v-250c0-28-22-50-50-50h-250c-28 0-50 22-50 50 0 28 22 50 50 50h129l-164 165c-20 19-20 51 0 70z m-665 365v250c0 28 22 50 50 50h250c28 0 50-22 50-50 0-28-22-50-50-50h-129l164-165c20-19 20-51 0-70-19-20-51-20-70 0l-165 164v-129c0-28-22-50-50-50-28 0-50 22-50 50z m1000 0c0-28-22-50-50-50-28 0-50 22-50 50v129l-165-164c-19-20-51-20-70 0-20 19-20 51 0 70l164 165h-129c-28 0-50 22-50 50 0 28 22 50 50 50h250c28 0 50-22 50-50v-250z" horiz-adv-x="1000" />

<glyph glyph-name="icon-reversal_sm" unicode="&#xe854;" d="M765 235c19 20 51 20 70 0l150-150c20-19 20-51 0-70l-150-150c-19-20-51-20-70 0-20 19-20 51 0 70l64 65h0c-44 0-77-1-107 9-25 7-48 20-69 37-24 20-41 47-66 83l-12 18c-15 23-9 54 14 70 23 15 54 9 69-14l12-18c28-42 37-54 47-62 10-9 22-15 34-19 13-3 27-4 78-4h0l-64 65c-20 19-20 51 0 70z m0 600c19 20 51 20 70 0l150-150c20-19 20-51 0-70l-150-150c-19-20-51-20-70 0-20 19-20 51 0 70l64 65h0c-51 0-65 0-78-4-12-4-24-10-34-19-10-8-19-20-47-62l-257-386c-24-36-42-63-66-83-21-17-44-30-69-37-30-10-63-9-106-9h-122c-28 0-50 22-50 50 0 28 22 50 50 50h122c50 0 64 1 77 4 12 4 24 10 34 19 10 8 19 20 47 62l257 386c25 36 42 64 66 84 21 16 44 29 69 36 30 10 63 9 107 9h0l-64 65c-20 19-20 51 0 70z m-593-135c43 0 76 1 106-9 25-7 48-20 69-36 24-20 42-48 66-84l12-18c15-23 9-54-14-70-23-15-54-9-69 14l-12 18c-28 42-37 54-47 62-10 9-22 15-34 19-13 4-27 4-77 4h-122c-28 0-50 22-50 50 0 28 22 50 50 50h122z" horiz-adv-x="1000" />

<glyph glyph-name="icon-medal_sm" unicode="&#xe855;" d="M249 850c10 0 22-1 33-4 12-4 23-11 33-19 12-11 20-25 26-35l127-216 127 216c6 10 14 24 26 35 9 8 20 15 32 19 12 3 24 4 34 4h112c19 0 37 0 51-1 14-1 32-5 48-16 18-13 31-32 36-54l1-9 1-8c0-16-5-31-10-42-6-13-15-29-24-46l-158-283c97-133 85-321-35-441-133-133-349-133-482 0-120 120-132 308-35 441l-158 283c-9 17-18 33-24 46-6 13-12 30-9 50 2 25 16 48 37 63 16 11 34 15 48 16 14 1 32 1 51 1h112z m396-482c-98 97-256 97-354 0-97-98-97-256 0-354 98-98 256-98 354 0 97 98 97 256 0 354z m-202-26c14 10 32 11 46 3 15-8 24-24 24-40v-182h12c25 0 45-21 45-46 0-25-20-45-45-45h-114c-25 0-45 20-45 45 0 25 20 46 45 46h11v97c-20-12-47-6-60 14-14 21-8 49 13 63l68 45z m-306 417c-21 0-34 0-43-1 0 0-1 0-1 0 0 0 0-1 0-1 4-9 10-20 20-38l145-259c41 31 87 53 135 64l-131 222c-4 7-6 10-7 13-1 0-1 0-1 0 0 0 0 0 0 0-3 0-7 0-15 0h-102z m545 0c0 0 0 0-1 0 0 0 0 0 0 0-1-3-3-6-8-13l-130-222c48-11 94-33 135-64l144 259c11 18 17 29 21 38 0 0 0 1 0 1 0 0-1 0-1 0-9 1-22 1-43 1h-102c-8 0-12 0-15 0z" horiz-adv-x="955" />

<glyph glyph-name="icon-office_sm" unicode="&#xe856;" d="M950 240c0 29 0 47-1 62-1 13-3 18-4 21-5 9-13 17-22 22-3 1-8 3-21 4-15 1-33 1-62 1h-190v-400h300v290z m-525 10c28 0 50-22 50-50 0-28-22-50-50-50h-150c-28 0-50 22-50 50 0 28 22 50 50 50h150z m0 200c28 0 50-22 50-50 0-28-22-50-50-50h-150c-28 0-50 22-50 50 0 28 22 50 50 50h150z m0 200c28 0 50-22 50-50 0-28-22-50-50-50h-150c-28 0-50 22-50 50 0 28 22 50 50 50h150z m125-10c0 29 0 47-1 62-1 13-3 18-4 21-5 9-13 17-22 22-3 1-8 3-21 4-15 1-33 1-62 1h-180c-29 0-47 0-62-1-13-1-18-3-21-4-9-5-17-13-21-22-2-3-4-8-5-21-1-15-1-33-1-62v-690h400v690z m100-190h190c27 0 51 0 70-1 20-2 39-6 58-15 28-15 51-38 66-66 9-19 13-38 15-58 1-19 1-43 1-70v-290c28 0 50-22 50-50 0-28-22-50-50-50h-1000c-28 0-50 22-50 50 0 28 22 50 50 50v690c0 27 0 51 2 70 1 20 5 39 14 58 15 28 38 51 66 66 19 9 39 13 58 15 19 1 43 1 70 1h180c27 0 51 0 70-1 20-2 39-6 58-15 28-15 51-38 66-66 9-19 13-38 15-58 1-19 1-43 1-70v-190z" horiz-adv-x="1100" />

<glyph glyph-name="icon-calander-1_sm" unicode="&#xe857;" d="M818 396h-727v-282c0-39 0-66 2-86 1-20 4-30 8-38 9-17 22-31 40-39 7-4 17-7 37-8 20-2 47-2 86-2h382c38 0 65 0 85 2 20 1 30 4 38 8 17 8 31 22 39 39 4 8 7 18 9 38 1 20 1 47 1 86v282z m-389-54c14 10 32 11 47 3 15-8 24-24 24-40v-182h11c26 0 46-21 46-46 0-25-20-45-46-45h-113c-25 0-46 20-46 45 0 25 21 46 46 46h11v97c-20-12-47-6-60 14-14 21-9 49 12 63l68 45z m162 281v45h-273v-45c0-25-20-46-45-46-25 0-46 21-46 46v45c-20 0-36 0-49-1-20-2-30-5-37-9-18-8-31-22-40-39-4-8-7-18-8-38-2-20-2-47-2-85v-10h727v10c0 38 0 65-1 85-2 20-5 30-9 38-8 17-22 31-39 39-8 4-18 7-38 9-13 1-29 1-49 1v-45c0-25-20-46-46-46-25 0-45 21-45 46z m318-509c0-38 0-69-2-94-2-25-6-49-18-71-17-34-45-62-79-79-22-11-46-16-71-18-25-2-56-2-93-2h-382c-38 0-69 0-94 2-25 2-49 7-71 18-34 17-62 45-79 79-11 22-16 46-18 71-2 25-2 56-2 94v382c0 37 0 68 2 93 2 25 7 49 18 71 17 34 45 62 79 79 22 12 46 16 71 18 17 1 36 2 57 2v46c0 25 21 45 46 45 25 0 45-20 45-45v-46h273v46c0 25 20 45 45 45 26 0 46-20 46-45v-46c21 0 40-1 57-2 25-2 49-6 71-18 34-17 62-45 79-79 12-22 16-46 18-71 2-25 2-56 2-93v-382z" horiz-adv-x="909" />

<glyph glyph-name="icon-cash_sm" unicode="&#xe858;" d="M546 168c0 76-62 137-137 137h-45v-273h45c75 0 137 61 137 136z m0 364c0 75-62 136-137 136h-45v-272h45c126 0 227-102 227-228 0-125-101-227-227-227h-45v-46c0-25-21-45-46-45-25 0-45 20-45 45v46h-46c-125 0-227 102-227 227 0 25 20 46 46 46 25 0 45-21 45-46 0-75 61-136 136-136h46v273h-46c-125 0-227 101-227 227 0 125 102 227 227 227h46v46c0 25 20 45 45 45 25 0 46-20 46-45v-46h45c126 0 227-102 227-227 0-25-20-46-45-46-25 0-45 21-45 46z m-455 0c0-75 61-136 136-136h46v272h-46c-75 0-136-61-136-136z" horiz-adv-x="636" />

<glyph glyph-name="icon-phone_sm" unicode="&#xe859;" d="M151 835c41 20 88 20 129 0 22-12 41-31 64-54l9-9c15-15 28-28 37-41 30-48 30-109 0-156-9-14-22-26-37-41-3-3-4-4-5-5l0-1c0 0 0-1 0-1 1-1 1-2 2-4 31-64 73-124 126-178 54-53 114-95 178-126 2-1 3-1 4-2 1 0 1 0 1 0 0 0 1 0 1 0 0 0 0 0 0 0 1 1 2 2 5 5 15 15 28 28 41 36 47 31 109 31 156 0 14-8 26-21 41-36l26-26c15-16 28-31 37-47 20-41 20-89 0-129-11-22-31-41-54-64l-7-8c-24-23-42-41-66-55-26-15-63-24-93-24-28 0-47 6-73 13-152 43-296 125-415 244-120 120-201 263-245 416-7 26-13 45-13 72 0 30 10 68 24 94 14 24 32 42 56 66l24 23c16 16 30 29 47 38z m86-85c-14 7-30 7-43 0-5-3-11-8-39-36l-8-8c-27-26-34-34-40-44-6-12-12-34-12-47 0-12 2-20 10-47 39-137 112-266 220-374 108-108 237-181 374-220 27-8 35-10 47-10 13 0 35 6 47 12 10 6 18 13 44 40l8 7c28 28 33 35 36 40 7 13 7 29 0 43-3 5-8 11-36 39l-9 9c-19 19-23 23-26 25-16 10-36 10-52 0-3-2-7-6-26-25-4-4-10-10-17-15-23-17-55-22-82-14-8 2-15 6-20 8-74 36-143 84-204 145-61 61-109 130-145 204-2 5-5 12-8 20-8 27-2 59 14 82 5 7 11 13 16 17 18 19 22 23 24 26 10 16 10 36 0 52-2 3-6 7-24 25l-10 10c-28 28-34 33-39 36z" horiz-adv-x="1000" />

<glyph glyph-name="icon-date_sm" unicode="&#xe85a;" d="M818 396h-727v-282c0-39 0-66 2-86 1-20 4-30 8-38 9-17 22-31 40-39 7-4 17-7 37-8 20-2 47-2 86-2h382c38 0 65 0 85 2 20 1 30 4 38 8 17 8 31 22 39 39 4 8 7 18 9 38 1 20 1 47 1 86v282z m-236-82c17 18 46 18 64 0 18-18 18-47 0-64l-205-205c-17-18-46-18-64 0l-91 91c-18 18-18 47 0 64 18 18 47 18 64 0l59-58 173 172z m9 309v45h-273v-45c0-25-20-46-45-46-25 0-46 21-46 46v45c-20 0-36 0-49-1-20-2-30-5-37-9-18-8-31-22-40-39-4-8-7-18-8-38-2-20-2-47-2-85v-10h727v10c0 38 0 65-1 85-2 20-5 30-9 38-8 17-22 31-39 39-8 4-18 7-38 9-13 1-29 1-49 1v-45c0-25-20-46-46-46-25 0-45 21-45 46z m318-509c0-38 0-69-2-94-2-25-6-49-18-71-17-34-45-62-79-79-22-11-46-16-71-18-25-2-56-2-93-2h-382c-38 0-69 0-94 2-25 2-49 7-71 18-34 17-62 45-79 79-11 22-16 46-18 71-2 25-2 56-2 94v382c0 37 0 68 2 93 2 25 7 49 18 71 17 34 45 62 79 79 22 12 46 16 71 18 17 1 36 2 57 2v46c0 25 21 45 46 45 25 0 45-20 45-45v-46h273v46c0 25 20 45 45 45 26 0 46-20 46-45v-46c21 0 40-1 57-2 25-2 49-6 71-18 34-17 62-45 79-79 12-22 16-46 18-71 2-25 2-56 2-93v-382z" horiz-adv-x="909" />

<glyph glyph-name="icon-speedometer_sm" unicode="&#xe85b;" d="M500 850c276 0 500-224 500-500 0-135-54-258-141-348-2-2-3-4-5-6-2-2-4-3-6-5-90-87-213-141-348-141-135 0-258 54-348 141-2 2-4 3-6 5-2 2-3 4-5 6-87 90-141 213-141 348 0 276 224 500 500 500z m-107-773c-46 0-62 0-77-3-14-4-27-9-39-17-9-5-17-12-32-27 70-56 159-89 255-89 97 0 185 33 255 89-15 15-23 22-32 27-12 8-25 13-39 17-15 3-31 3-77 3h-214z m153 273c0 25-21 46-46 46-25 0-45-21-45-46 0-25 20-45 45-45 25 0 46 20 46 45z m-91 341v66c-80-9-153-41-212-89l46-47c18-17 18-46 0-64-17-18-46-18-64 0l-46 46c-46-58-77-129-85-207h65c25 0 46-21 46-46 0-25-21-45-46-45h-65c8-79 39-151 87-210 17 17 32 30 48 40 21 12 43 21 66 27 27 7 56 6 98 6h214c42 0 71 1 98-6 23-6 45-15 66-27 16-10 31-23 48-40 48 59 79 131 88 210h-66c-25 0-45 20-45 45 0 25 20 46 45 46h66c-9 78-40 149-86 208l-198-195c9-18 13-38 13-59 0-75-61-136-136-136-75 0-136 61-136 136 0 75 61 136 136 136 21 0 41-5 59-13l198 195c-59 48-132 80-211 89v-66c0-25-21-45-46-45-25 0-45 20-45 45z" horiz-adv-x="1000" />

<glyph glyph-name="icon-stopwatch_sm" unicode="&#xe85c;" d="M773 282c0 188-153 341-341 341-188 0-341-153-341-341 0-188 153-341 341-341 188 0 341 153 341 341z m-387 182c0 25 21 45 46 45 25 0 45-20 45-45v-156l92-55c21-13 28-41 15-63-12-21-40-28-62-15l-114 68c-13 8-22 23-22 39v182z m-297 278c18 17 47 17 65 0 17-18 17-47 0-65l-69-68c-17-18-46-18-64 0-18 18-18 47 0 64l68 69z m621 0c17 16 43 17 61 3l3-3 69-69c17-17 17-46 0-64-18-18-47-18-65 0l-68 68c-18 18-18 47 0 65z m154-460c0-239-194-432-432-432-239 0-432 193-432 432 0 223 169 407 386 429v48h-45c-25 0-45 20-45 46 0 25 20 45 45 45h182c25 0 45-20 45-45 0-26-20-46-45-46h-46v-48c217-22 387-206 387-429z" horiz-adv-x="864" />

<glyph glyph-name="icon-meter-alt_sm" unicode="&#xe85d;" d="M909 350c0 226-183 409-409 409-226 0-409-183-409-409 0-226 183-409 409-409 226 0 409 183 409 409z m-773 0c0 201 163 364 364 364 22 0 43-2 64-6 25-4 41-28 37-53-4-24-28-41-53-36-15 2-31 4-48 4-151 0-273-122-273-273 0-58 18-112 49-156 15-20 10-49-11-63-21-14-49-9-63 11-41 59-66 131-66 208z m637 0c0 20-2 40-6 59-6 24 10 48 34 54 25 5 49-11 54-35 6-25 9-51 9-78 0-77-24-149-66-208-14-20-42-25-63-11-20 14-25 43-11 63 31 44 49 98 49 156z m-101 237c18 17 47 17 65 0 17-18 17-47 0-65l-149-148c2-8 3-16 3-24 0-50-41-91-91-91-50 0-91 41-91 91 0 50 41 91 91 91 8 0 16-1 23-3l149 149z m328-237c0-276-224-500-500-500-276 0-500 224-500 500 0 276 224 500 500 500 276 0 500-224 500-500z" horiz-adv-x="1000" />

<glyph glyph-name="icon-rewind_sm" unicode="&#xe85e;" d="M500 750c-221 0-400-179-400-400 0-221 179-400 400-400 190 0 348 132 390 309l-20-19c-19-20-51-20-70 0-20 19-20 51 0 70l100 100c9 10 22 15 35 15 13 0 26-5 35-15l100-100c20-19 20-51 0-70-19-20-51-20-70 0l-10 9c-47-227-248-399-490-399-276 0-500 224-500 500 0 276 224 500 500 500 184 0 344-99 431-246 14-24 6-54-18-68-24-14-54-7-68 17-70 118-198 197-345 197z m50-150c0 28-22 50-50 50-28 0-50-22-50-50v-250c0-17 8-32 22-42l150-100c23-15 54-9 70 14 15 23 9 54-14 70l-128 85v223z" horiz-adv-x="1100" />

<glyph glyph-name="icon-trendline_sm" unicode="&#xe85f;" d="M1167 850c-46 0-84-37-84-83 0-46 38-84 84-84h382l-514-513c-17-18-27-27-34-33l-1-1-1 1c-7 6-17 15-34 33l-230 230c-15 15-30 29-43 41-14 12-33 25-57 33-34 11-70 11-103 0-24-8-43-21-57-33-14-12-28-26-43-41l-408-408c-32-32-32-85 0-118 33-32 86-32 118 0l406 406c18 18 27 27 35 33l0 1 1-1c8-6 17-15 35-33l230-230c15-15 29-29 42-40 15-13 33-26 58-34 33-11 69-11 103 0 24 8 42 21 57 34 13 11 28 25 42 40l516 516v-383c0-46 37-83 83-83 46 0 83 37 83 83v584c0 46-37 83-83 83h-583z" horiz-adv-x="1833" />

<glyph glyph-name="icon-profile_sm" unicode="&#xe860;" d="M909 350c0 226-183 409-409 409-226 0-409-183-409-409 0-101 37-193 97-265 42 51 105 83 176 83h272c71 0 134-32 176-83 60 72 97 164 97 265z m-545-273c-45 0-84-21-109-54 68-52 153-82 245-82 92 0 177 30 245 82-24 33-64 54-109 54h-272z m272 387c0 75-61 136-136 136-75 0-136-61-136-136 0-76 61-137 136-137 75 0 136 61 136 137z m364-114c0-147-64-280-165-372-1 0-2-1-3-1-88-79-204-127-332-127-128 0-244 48-332 127-1 0-2 1-3 1-101 92-165 225-165 372 0 276 224 500 500 500 276 0 500-224 500-500z m-273 114c0-126-101-228-227-228-125 0-227 102-227 228 0 125 102 227 227 227 126 0 227-102 227-227z" horiz-adv-x="1000" />

<glyph glyph-name="icon-x_sm" unicode="&#xe861;" d="M863 850h168l-367-420 432-571h-338l-265 347-303-347h-168l392 449-414 542h347l239-316 277 316z m-59-890h93l-601 795h-100l608-795z" horiz-adv-x="1100" />

<glyph glyph-name="icon-target_sm" unicode="&#xe862;" d="M0 350c0 276 224 500 500 500 25 0 46-20 46-45 0-26-21-46-46-46-226 0-409-183-409-409 0-226 183-409 409-409 226 0 409 183 409 409 0 25 20 45 46 45 25 0 45-20 45-45 0-276-224-500-500-500-276 0-500 224-500 500z m227 0c0 151 122 273 273 273 25 0 46-21 46-46 0-25-21-45-46-45-100 0-182-82-182-182 0-100 82-182 182-182 100 0 182 82 182 182 0 25 20 45 45 45 25 0 46-20 46-45 0-151-122-273-273-273-151 0-273 122-273 273z m599 499c14-2 26-11 33-24l39-77 77-39c13-7 22-19 24-33 3-15-2-30-12-40l-137-136c-8-9-20-14-32-14h-117l-169-168c-18-18-46-18-64 0-18 18-18 46 0 64l168 169v117c0 12 5 24 14 32l136 137 4 3c10 8 23 12 36 9z m-99-200v-72h72l79 79-35 17c-8 4-16 12-20 20l-17 35-79-79z" horiz-adv-x="1000" />

<glyph glyph-name="icon-youtube_sm" unicode="&#xe863;" d="M651 850c3 0 7 0 12 0 11 0 26 0 44 0 36-1 85-1 137-3 52-1 108-3 156-7 41-2 81-6 109-12l12-2 2-1c35-10 67-29 92-55 23-23 39-50 49-81l4-13 1-4c17-97 26-196 25-295 0-98-8-195-25-291-1-2-1-3-1-4-9-36-27-68-53-94-25-27-57-46-92-56 0 0-1 0-1 0-29-8-74-12-121-16-49-3-105-6-157-7-52-2-101-3-137-3-18 0-33 0-44 0-5 0-9 0-12 0h-8c-3 0-7 0-12 0-11 0-25 0-43 0-37 0-86 1-138 3-52 1-108 4-156 7-47 4-93 8-122 16l0 0c-35 10-66 28-91 53-26 25-44 56-54 91-1 2-1 3-1 5-18 98-27 197-26 296 0 98 8 196 26 293 0 1 0 3 0 4 9 35 27 68 53 94 25 26 57 45 92 55l1 0c29 8 75 13 122 17 48 3 104 5 156 7 52 1 101 2 138 3 18 0 32 0 43 0 5 0 9 0 12 0h8z m-8-118c-3 0-7 0-12 0-10 0-24 0-42 0-36 0-84-1-136-3-51-1-105-3-151-7-47-3-82-8-99-12l-11-4c-11-5-21-11-29-20-11-11-18-25-22-40-16-88-24-179-23-269v-1c-1-90 7-180 23-269 4-15 12-28 22-38 11-11 25-19 40-23h0c17-5 52-9 99-12 46-4 100-6 151-8 52-1 100-2 136-2 18 0 32-1 42-1 5 0 9 0 12 0h8c3 0 7 0 12 0 10 0 25 1 42 1 36 0 85 1 136 2 51 2 105 4 151 8 48 3 82 7 99 12 15 4 29 12 40 24 11 11 18 24 22 39 16 89 24 178 23 268v0c1 91-7 182-23 272-4 15-11 28-22 39-11 11-24 19-39 24-18 4-53 8-100 11-46 3-100 5-151 7-51 1-100 2-136 2-17 0-32 0-42 0-5 0-9 0-12 0h-8z m-97-83c18-1 32-7 41-12 10-5 21-12 32-19l232-149c9-6 20-13 28-19 7-6 18-15 26-30l3-6 3-9c6-19 5-41-3-60-8-18-21-29-29-36-8-6-19-13-28-19l-232-149c-11-7-22-14-32-19-10-5-27-13-49-12-26 2-49 15-65 35-13 18-15 37-16 47-1 12-1 25-1 38v299c0 12 0 26 1 38 1 10 3 29 16 47 16 20 39 33 65 35l8 0z m28-397l198 127-198 128v-255z" horiz-adv-x="1294" />

</font>
</defs>
</svg>
